<svg width="295" height="996" viewBox="0 0 295 996" fill="none" xmlns="http://www.w3.org/2000/svg">
<path opacity="0.33" fill-rule="evenodd" clip-rule="evenodd" d="M-20.2383 988.599L-22.7157 987.936C-48.33 980.831 -72.2265 969.117 -94.0756 953.366C-116.93 936.862 -135.875 916.578 -150.355 893.146C-183.454 840.103 -191.351 774.984 -172.973 704.594C-134.747 557.442 -213.142 418.392 -276.365 306.252L-276.937 305.238C-305.668 254.813 -332.69 207.019 -344.672 166.152C-358.104 120.792 -352.342 87.5761 -326.283 61.4883C-298.96 34.2906 -261.72 16.0263 -214.97 7.31067C-177.804 0.13062 -134.803 -0.899508 -86.8671 3.9789C-9.60659 11.8707 55.1346 33.3164 62.4692 35.7459C62.8744 35.8802 63.1044 35.9564 63.1516 35.969C105.89 53.9382 143.291 76.512 174.123 102.878C203.006 127.514 227.182 156.2 245.648 188.184L245.649 188.186C246.802 190.184 247.956 192.182 248.885 194.12C213.201 130.005 154.286 75.1133 62.9706 36.6447C62.9062 36.6274 62.6253 36.5356 62.1376 36.3762C54.0927 33.7464 -10.2222 12.7223 -86.8229 4.71491C-161.97 -3.10973 -264.345 0.59817 -325.953 62.0595C-351.667 87.7571 -357.654 120.913 -344.161 166.048C-331.954 206.975 -305.157 254.709 -276.651 305.073C-244.683 361.434 -208.714 425.385 -185.86 492.339C-161.031 565.353 -155.86 631.581 -170.017 694.402C-134.187 553.367 -209.511 420.046 -270.173 312.674L-270.174 312.674L-270.382 312.305C-271.171 310.9 -271.959 309.497 -272.746 308.097L-272.847 307.918L-272.875 307.869C-299.251 260.925 -324.123 216.66 -335.435 178.524C-348.104 134.818 -342.418 102.788 -317.621 77.8099C-291.336 51.7825 -255.464 34.1173 -210.757 25.8198C-174.898 19.0137 -133.594 18.0116 -87.5204 22.6324C-12.9373 30.4142 49.8523 51.067 56.0805 53.1156C56.3821 53.2148 56.5511 53.2704 56.5823 53.2788C97.5791 70.5399 133.524 92.2409 163.187 117.569C190.899 141.168 214.13 168.876 231.996 199.492C238.261 210.344 243.955 221.525 249.018 233.261C216.83 159.703 157.264 96.4296 56.4013 53.9544C56.3362 53.937 56.0582 53.8463 55.577 53.6895L55.5761 53.6891L55.5755 53.6889C47.7302 51.1311 -14.02 30.9979 -87.4762 23.3684C-159.574 15.8779 -258.045 19.4252 -317.066 78.4414C-341.803 103.194 -347.428 134.999 -334.638 178.255C-322.971 217.59 -297.103 263.385 -269.751 311.75C-239.101 365.827 -204.391 427.268 -182.57 491.772C-159.893 558.808 -154.215 619.905 -165.538 677.747C-135.822 545.255 -206.589 420.117 -263.767 319.146C-290.13 272.495 -314.844 228.698 -326.198 190.896C-338.613 148.947 -333.29 118.268 -309.306 94.5212C-284.223 69.3784 -249.779 52.5376 -206.829 44.4934C-172.503 38.0008 -132.671 37.0871 -88.7448 41.6152C-17.12 49.0732 42.8924 68.77 48.9454 70.7567C49.2431 70.8544 49.4103 70.9093 49.4419 70.9178C63.194 76.7403 76.3117 83.0472 88.7837 89.8326C76.5283 83.2342 63.6206 77.0667 50.0572 71.324C49.9509 71.2955 49.5701 71.1756 48.9285 70.9734C45.493 69.8911 34.578 66.4522 18.2576 62.0792C-7.19179 55.26 -45.6153 46.4128 -88.1295 42.0215C-157.179 34.865 -251.519 38.3121 -308.18 94.8229C-331.939 118.63 -337.202 149.084 -324.891 190.522C-314.112 227.078 -290.376 269.371 -265.145 314.328L-265.145 314.328L-265.145 314.329L-265.091 314.424C-264.29 315.851 -263.488 317.28 -262.685 318.712L-260.923 321.842L-260.923 321.843L-260.923 321.843C-232.087 373.078 -199.706 430.614 -179.055 491.265C-156.964 556.384 -151.82 615.345 -163.027 671.453C-133.259 543.792 -201.481 423.047 -256.641 325.884L-257.952 323.543L-259.098 321.499C-283.183 278.53 -305.922 237.961 -316.164 202.999C-328.102 162.868 -322.915 133.601 -299.848 110.573C-275.803 86.601 -242.726 70.3593 -201.534 62.5683C-168.74 56.3893 -130.545 55.2784 -88.316 59.8346C-19.3478 66.9645 38.5835 86.2516 43.5516 87.9056C43.7608 87.9753 43.8761 88.0137 43.8944 88.0185C116.731 118.88 171.001 164.078 204.919 222.169C233.997 272.204 248.972 333.426 249.308 404.243C250.068 533.832 203.117 672.12 168.782 773.235C167.698 776.471 166.622 779.681 165.555 782.861C158.299 804.496 151.51 824.738 146.185 842.253C134.514 880.403 110.059 908.611 75.4222 923.469C44.3766 936.634 7.18677 938.497 -29.7486 928.6L-32.0008 927.997C-78.4394 914.829 -119.556 884.501 -144.499 844.264C-171.125 801.456 -179.34 749.92 -168.32 694.093C-200.566 831.828 -119.193 921.792 -28.4795 947.286L-26.2273 947.889C26.3439 961.976 88.1981 954.187 126.975 911.834C114.796 925.359 99.8349 936.021 82.382 943.438C50.9302 957.218 12.1035 958.884 -26.6336 948.505L-29.1109 947.841C-77.8018 934.07 -120.704 902.298 -146.697 860.573C-174.798 815.538 -183.045 761.132 -171.306 702.456C-205.468 846.532 -120.458 940.522 -25.5895 967.13L-23.3373 967.734C49.4074 987.226 139.458 966.456 167.249 874.45C173.127 854.923 180.814 832.23 188.995 808.077L189.002 808.058L189.004 808.051L189.03 807.975C190.009 805.086 190.995 802.175 191.986 799.247C227.723 694.095 274.485 555.735 279.659 423.553C274.718 556.058 227.902 694.494 193.045 797.567L193.044 797.569L192.436 799.367C191.748 801.4 191.063 803.423 190.381 805.437L189.455 808.172L189.454 808.173L189.454 808.174C181.269 832.336 173.579 855.037 167.699 874.571C155.063 916.325 128.532 946.873 90.7096 962.808C57.3192 977.517 16.9601 979.497 -23.3535 968.695L-25.8309 968.031C-76.5487 953.717 -121.236 920.501 -148.444 877.002C-178.726 828.329 -187.024 769.045 -172.602 705.02C-212.435 858.75 -122.838 959.178 -22.5347 987.26L-20.0572 987.924C55.6152 1008.2 149.301 986.474 178.343 890.699C185.174 867.908 194.339 840.914 204.15 812.403L204.519 811.315L204.519 811.314C240.48 704.996 287.318 566.522 294.977 432.895C287.544 567.214 240.677 706.236 205.444 810.751L204.826 812.584C203.511 816.504 202.203 820.395 200.908 824.249C192.764 848.482 185.107 871.268 179.019 890.88C165.96 934.211 138.167 965.869 98.856 982.854C63.9332 997.877 21.6518 999.824 -20.2383 988.599ZM280.108 394.871C280.191 404.389 280.035 413.955 279.659 423.553C279.984 414.847 280.128 406.165 280.075 397.521C280.09 396.639 280.101 395.755 280.108 394.871ZM279.679 377.38C279.916 383.19 280.057 389.022 280.108 394.871C280.154 389.015 280.024 383.135 279.679 377.38ZM156.544 858.546C149.933 880.327 139.696 897.94 126.975 911.834C140.078 897.283 149.959 879.417 156.258 858.711C162.607 837.721 170.942 812.919 179.925 786.601C215.692 681.042 264.559 536.507 263.895 401.151C263.443 327.165 247.945 263.389 217.549 211.07C188.594 161.187 145.323 120.593 88.7837 89.8326C205.616 152.736 263.154 254.794 264.12 401.211C264.844 536.343 215.978 680.877 180.211 786.436C171.228 812.754 162.892 837.556 156.544 858.546ZM-88.5574 60.7355C-47.9053 64.8692 -11.0583 73.294 13.2651 79.8114C25.1556 82.9975 34.0518 85.7815 38.9565 87.3164C41.6695 88.1654 43.1612 88.6322 43.2629 88.5735C180.289 146.532 247.271 249.69 248.121 404.166C248.717 533.47 201.991 671.818 167.656 772.934C167.222 774.226 166.79 775.515 166.358 776.8L165.385 779.7L165.209 780.224L165.208 780.226C157.699 802.59 150.57 823.823 145.059 841.951C119.545 926.36 36.9315 945.502 -29.7325 927.639L-31.7594 927.096C-117.366 902.989 -194.019 819.302 -166.954 690.916C-175.606 741.704 -167.39 788.707 -143.038 828C-119.023 866.298 -79.8131 895.633 -35.3411 908.032L-33.0889 908.635C2.27 918.11 37.9878 916.335 66.9903 903.588C100.2 889.554 123.557 862.743 134.58 826.108C139.666 809.469 146.156 790.301 153.109 769.769C154.173 766.624 155.249 763.448 156.332 760.244L156.667 759.253L156.667 759.252C189.256 662.832 233.818 530.986 233.188 407.648C233.128 399.582 232.871 391.643 232.419 383.833C226.063 263.693 174.491 178.306 75.7254 124.247C63.4579 117.449 50.485 111.174 36.8145 105.433C36.7812 105.424 36.6109 105.368 36.309 105.268C30.4766 103.345 -24.482 85.2217 -89.7052 78.5322C-130.072 74.2336 -166.284 75.1516 -197.832 81.1819C-237.206 88.4945 -268.63 103.972 -291.697 126.999C-313.501 148.917 -318.611 176.997 -307.153 215.311C-297.045 249.359 -274.825 288.755 -251.209 330.627L-250.025 332.726C-198.564 423.445 -135.211 535.367 -158.832 654.172C-150.27 603.22 -155.841 549.423 -175.765 490.699C-195.865 431.483 -227.608 375.182 -255.784 325.389L-256.939 323.344C-281.717 279.458 -304.94 238.326 -315.368 202.729C-327.14 162.884 -322.014 133.842 -299.293 111.205C-245.219 57.1392 -154.784 53.8527 -88.5574 60.7355ZM37.4298 105.839C50.9011 111.512 63.6651 117.646 75.7254 124.247C126.152 152.191 164.658 188.969 190.697 233.807C215.138 275.85 229.089 326.31 232.419 383.833C232.823 391.461 233.044 399.229 233.084 407.137C233.774 530.251 189.212 662.096 156.623 758.516L156.287 759.508C147.908 783.574 140.341 806.409 134.475 825.597C110.212 906.238 31.2345 924.423 -32.5016 907.345L-34.5285 906.801C-116.146 883.999 -189.248 804.165 -163.779 681.84C-171.867 730.055 -164.176 774.762 -140.901 811.917C-118.1 848.441 -80.676 876.332 -38.2309 888.188L-36.204 888.731C-2.42162 897.783 31.3738 895.976 59.9096 884.07C91.5263 870.575 113.846 844.933 124.386 810.1C130.07 791.588 137.275 770.104 145.128 747.103L145.131 747.095C176.316 655.034 219.045 528.895 218.315 410.905C217.762 346.306 204.222 290.537 177.782 245.072C146.892 191.896 97.588 150.684 30.9813 122.698C30.9683 122.695 30.9356 122.684 30.8834 122.668C30.8534 122.658 30.8169 122.646 30.774 122.632L30.4817 122.536C24.8349 120.678 -27.3521 103.508 -89.6224 97.1415C-127.902 93.1607 -162.642 93.9904 -192.657 99.7071C-230.049 106.827 -260.045 121.48 -282.074 143.337C-303.126 164.249 -307.649 191.039 -296.955 227.699C-287.381 260.164 -266.304 297.579 -243.836 337.461L-242.674 339.523L-242.538 339.765C-193.7 426.255 -133.484 532.893 -155.896 645.981C-147.838 597.429 -153.28 546.041 -172.19 489.967C-191.205 433.755 -221.447 380.261 -248.189 332.956L-248.19 332.955L-248.19 332.955L-248.658 332.127C-272.773 289.698 -295.283 249.389 -305.62 214.997C-316.914 176.969 -312.15 149.279 -290.406 127.587C-238.693 76.0265 -152.389 72.8402 -89.2106 79.3889C-50.4809 83.4903 -15.2104 91.4927 7.98686 97.7084C16.3687 99.9543 23.2224 101.956 28.2089 103.412L28.2093 103.412L28.2096 103.412L28.2099 103.412L28.2103 103.412C33.6739 105.007 36.8957 105.948 37.4298 105.839ZM2.99418 115.44C-19.3022 109.466 -52.771 101.947 -89.8638 98.0424C-150.219 91.7674 -232.392 94.8535 -281.805 144.134C-302.511 164.655 -306.974 191.22 -296.383 227.369C-286.585 260.168 -265.004 298.539 -242.043 338.968L-241.554 339.835L-241.553 339.835C-216.133 384.85 -187.223 436.043 -169.185 489.565C-149.324 548.279 -145.182 601.271 -156.385 651.699C-156.376 651.664 -156.367 651.63 -156.358 651.595C-127.145 538.969 -187.395 432.304 -235.894 346.65L-237.062 344.574C-258.377 306.69 -278.458 270.999 -287.492 240.131C-297.708 205.289 -293.322 179.911 -273.473 159.884C-226.301 112.659 -147.807 109.793 -90.0502 115.855C-30.4769 121.888 19.6006 138.631 24.2309 140.179L24.2329 140.179C24.3198 140.208 24.3907 140.232 24.4451 140.25C24.5216 140.276 24.5658 140.29 24.5772 140.293C87.9263 166.923 134.889 206.06 164.071 256.605C189.131 300.011 202.209 353 202.421 414.37C203.022 526.536 162.431 646.493 132.678 734.111C131.579 737.401 130.489 740.66 129.411 743.882L129.409 743.889C123.298 762.152 117.581 779.239 113.006 794.016C102.888 827.272 81.6667 851.518 51.6428 864.474C24.9853 875.677 -7.33815 877.395 -39.3188 868.826L-41.3458 868.283C-81.764 856.97 -117.403 830.524 -138.989 795.773C-162.967 757.361 -169.579 710.627 -158.42 660.182C-158.442 660.268 -158.464 660.354 -158.487 660.44C-190.596 783.876 -118.54 864.497 -38.2147 887.227L-36.1878 887.77C24.6205 904.063 99.7373 886.775 122.974 809.964C128.598 791.677 135.864 769.967 143.716 746.967L143.719 746.959C174.904 654.897 217.633 528.758 217.068 411.054C216.156 270.32 155.186 176.256 30.5147 123.539C30.4512 123.522 30.1896 123.437 29.7404 123.292L29.7391 123.292C27.0016 122.407 17.3071 119.276 2.99418 115.44ZM-90.5168 116.696C-55.2861 120.342 -23.4542 127.665 -2.28385 133.337C7.23895 135.889 14.5408 138.102 18.9977 139.453L18.9983 139.453L18.9988 139.453C22.025 140.371 23.7391 140.89 23.9457 140.848C142.552 190.974 200.434 280.349 201.295 414.068C201.896 526.234 161.365 645.966 131.612 733.584C130.528 736.83 129.452 740.046 128.388 743.227L128.346 743.351L128.344 743.359C122.233 761.623 116.515 778.711 111.94 793.489C89.7291 866.472 18.4129 883.088 -39.4675 867.579L-41.2693 867.097C-116.848 845.892 -184.356 770.858 -156.742 656.03C-165.65 701.861 -158.828 744.328 -137.017 779.404C-116.585 812.156 -82.7921 837.383 -44.4009 848.153L-42.5991 848.636C-12.195 856.783 18.5961 855.378 43.8258 844.999C72.4823 832.642 92.4407 809.506 102.076 778.052C106.604 762.811 112.665 744.91 119.035 726.094L119.038 726.085L119.689 724.163C120.018 723.191 120.347 722.217 120.678 721.24L121.256 719.527C149.243 636.668 187.445 523.565 186.751 417.896C186.431 359.635 174.326 309.32 150.36 268.138C122.662 220.163 78.0993 182.877 18.0078 157.602C17.9882 157.597 17.8759 157.56 17.6742 157.494C13.254 156.038 -34.1171 140.436 -90.7036 134.508C-145.187 128.841 -219.775 131.546 -264.586 176.265C-283.398 195.122 -287.708 219.313 -277.97 252.338C-269.652 280.997 -251.128 313.949 -231.432 348.988L-231.415 349.019L-229.86 351.784L-228.993 353.327C-183.879 433.091 -127.873 532.358 -152.375 637.207C-143.395 591.093 -147.843 542.363 -165.895 488.998C-183.301 437.746 -210.757 388.87 -235.202 345.87C-280.239 266.213 -315.774 203.345 -272.918 160.515C-226.031 113.455 -147.823 110.755 -90.5168 116.696ZM-7.27675 151.069C-27.321 145.698 -57.5764 138.798 -90.945 135.409C-145.203 129.802 -219.506 132.342 -264.031 176.897C-304.587 217.446 -270.865 277.173 -228.076 352.607C-185.8 427.347 -134.028 519.092 -147.388 616.636C-130.935 521.928 -181.35 432.461 -222.318 359.944C-241.981 325.226 -260.491 292.506 -268.672 264.485C-277.932 233.279 -273.924 210.214 -255.864 192.362C-213.64 150.087 -142.956 147.543 -91.2966 152.937C-35.402 158.741 11.2737 174.627 11.6638 174.973C68.4978 198.892 110.494 234.042 136.934 279.508C159.581 318.405 171.163 366.166 171.428 421.032C171.936 521.465 135.665 628.579 109.087 707.069L109.086 707.069L108.799 707.919C102.137 727.377 95.9414 745.993 91.2667 761.638C82.2792 791.576 63.1938 813.257 36.1903 824.849C11.9821 835.019 -16.8866 836.456 -45.7142 828.732L-47.5159 828.249C-83.8802 818.023 -115.662 794.299 -135.27 762.975C-154.48 732.202 -161.305 695.494 -155.559 655.933C-176.171 759.744 -113.693 827.453 -44.0991 847.027L-42.2974 847.51C12.4301 862.174 80.1105 846.514 101.07 777.3C105.443 762.584 111.196 745.565 117.357 727.34L117.395 727.228L118.329 724.465C118.775 723.145 119.223 721.82 119.672 720.488L120.286 718.671C148.269 635.824 186.379 522.993 185.686 417.369C184.937 290.438 129.918 205.693 17.6015 158.218C17.3943 158.26 15.7431 157.757 12.8457 156.873L12.845 156.873L12.844 156.873C8.60142 155.579 1.68792 153.471 -7.27675 151.069ZM-91.3731 154.123C-59.9268 157.48 -31.2479 163.958 -12.3298 169.027C1.85885 172.829 10.7468 175.693 10.9116 175.978C117.389 220.923 169.319 300.979 170.016 420.895C170.584 521.104 134.314 628.217 107.735 706.707L107.447 707.557C105.625 713.083 103.804 718.532 102.023 723.859C97.5151 737.349 93.2666 750.061 89.9154 761.276C70.2066 826.722 6.16196 841.425 -45.6377 827.545L-47.2142 827.123C-112.959 808.579 -172.095 744.596 -152.493 646.159C-157.845 683.472 -151.358 717.87 -133.358 746.831C-114.965 776.381 -84.7431 798.721 -50.631 808.345L-49.0545 808.767C-21.8034 816.069 5.59327 814.72 28.2692 804.864C53.6196 794.035 71.7276 773.3 80.2323 745.163C83.4034 734.618 87.4367 722.697 91.7215 710.034C93.4271 704.993 95.1726 699.834 96.9193 694.598C122.091 620.477 156.486 519.136 155.879 424.107C155.566 372.125 144.671 327.204 123.343 290.591C98.3875 247.695 58.7315 214.62 5.15493 192.057C5.13426 192.052 5.02165 192.014 4.82053 191.948L4.816 191.946L4.814 191.946L4.81342 191.945C0.596961 190.548 -41.7151 176.523 -91.8894 171.365C-140.726 166.245 -207.279 168.689 -247.203 208.683C-284.074 245.392 -253.815 299.123 -215.477 366.846C-176.604 435.429 -128.586 520.148 -144.927 609.966C-131.963 517.518 -181.064 430.612 -221.171 359.625L-221.236 359.51C-261.717 288.074 -293.4 231.548 -255.145 193.279C-212.98 151.23 -143.033 148.73 -91.3731 154.123ZM-17.5477 186.698C-35.3397 181.931 -62.3818 175.651 -92.2515 172.716C-140.637 167.717 -206.68 170.056 -246.483 209.6C-282.49 245.522 -252.893 298.068 -215.291 364.829L-214.56 366.126C-176.117 433.946 -128.997 517.37 -143.311 606.081C-125.835 520.321 -171.541 439.271 -208.637 373.748L-208.698 373.64C-244.698 309.966 -273.153 259.639 -238.541 225.005C-200.978 187.516 -138.556 185.172 -92.7677 189.958C-45.5528 194.792 -6.01856 207.86 -1.97594 209.197L-1.97438 209.197C-1.87639 209.229 -1.79931 209.255 -1.7436 209.273C-1.68516 209.292 -1.65019 209.304 -1.63929 209.306C48.6797 230.514 85.9349 261.739 109.467 301.839C129.416 336.392 139.849 378.534 140.045 427.348C140.522 516.161 108.489 611.098 85.0616 680.532L84.7547 681.441C84.3969 682.5 84.04 683.556 83.6842 684.608L82.9773 686.698L82.948 686.785L82.9476 686.786C77.7758 702.076 72.8946 716.508 69.1378 728.914C51.4043 787.889 -6.00021 801.233 -52.3947 788.802L-53.9712 788.38C-86.0563 779.3 -114.493 758.404 -131.671 730.627C-149.331 702.338 -155.09 668.624 -149.033 632.177C-170.242 727.301 -113.571 789.325 -50.7193 806.872L-49.1429 807.295C-0.271048 820.39 59.973 806.359 78.6558 744.741C83.0892 729.997 88.9827 712.507 95.3428 694.175C120.514 620.054 154.91 518.714 154.243 423.91C153.658 310.783 104.59 235.357 4.40277 193.063C4.28858 193.129 2.91657 192.703 0.446952 191.937L0.44546 191.937L0.444588 191.936C-3.2621 190.787 -9.4399 188.871 -17.5477 186.698ZM-92.6794 191.43C-64.7321 194.332 -39.2665 200.19 -22.6005 204.656C-12.1977 207.443 -4.89813 209.739 -2.55985 210.475L-2.55958 210.475L-2.55818 210.476C-2.32415 210.549 -2.13991 210.607 -2.00735 210.648C-1.88781 210.685 -1.81027 210.709 -1.7761 210.718C92.1215 250.361 138.265 321.383 138.799 427.496C139.111 515.977 107.172 610.636 83.7483 680.057L83.4034 681.079C82.7976 682.872 82.1944 684.656 81.5951 686.428L81.5948 686.429L81.5941 686.431C76.4232 701.718 71.5428 716.148 67.7864 728.552C50.3547 786.401 -6.2534 799.476 -51.9722 787.225L-53.3235 786.863C-111.332 770.627 -163.491 714.412 -146.648 627.951C-150.963 660.063 -145.145 689.678 -129.534 714.544C-113.51 740.321 -86.9195 759.998 -56.8612 768.535L-55.5099 768.897C-12.0432 780.544 41.5003 768.097 57.9222 713.115C61.8728 700.173 66.9376 684.874 72.4691 668.735L72.999 667.169C94.9746 602.241 124.887 513.865 124.316 431.099C124.01 385.394 114.325 345.866 95.695 313.597C73.9324 275.903 39.0177 246.753 -8.04373 226.901C-8.2086 226.616 -46.8972 213.353 -93.1958 208.671C-135.935 204.22 -194.453 206.403 -229.49 241.672C-261.803 274.028 -235.321 320.932 -201.626 380.614L-201.571 380.71C-167.604 440.787 -125.925 514.515 -139.406 592.735C-128.801 511.417 -171.898 435.29 -207.209 372.924L-207.65 372.144C-243.142 309.359 -271.17 259.776 -237.371 226.042C-200.154 188.944 -138.242 186.705 -92.6794 191.43ZM-228.485 242.424C-175.734 189.693 -69.4835 211.163 -26.6924 222.629C-17.5116 225.089 -11.2201 227.109 -9.10523 227.788C-8.67793 227.925 -8.42117 228.007 -8.34547 228.028C79.6524 265.366 122.768 331.473 123.19 430.797C123.6 513.931 93.4955 602.884 71.4752 667.949L71.4637 667.983C65.8719 684.347 60.8071 699.646 56.8565 712.588C40.4507 766.609 -12.2964 778.787 -55.0875 767.321L-56.4388 766.959C-109.167 752.155 -156.778 701.817 -144.692 624.509C-146.985 651.628 -141.336 676.728 -128.013 698.054C-112.977 722.118 -88.1726 740.352 -60.1413 748.345L-58.7901 748.707C-18.2512 759.57 31.8817 748.14 47.3381 696.761C49.8746 687.951 53.2085 678.075 56.7656 667.538L56.7659 667.537L56.7661 667.536L56.7715 667.52L56.7828 667.486C58.106 663.567 59.4599 659.556 60.8149 655.474C81.3437 595.075 109.44 511.841 108.992 434.235C108.743 391.925 99.8054 355.011 82.2691 324.966C61.9903 289.842 29.416 262.768 -14.3878 244.272C-14.4273 244.261 -14.5867 244.209 -14.8608 244.121C-23.982 241.172 -160.011 197.189 -220.829 257.994C-251.144 288.252 -226.43 332.048 -194.956 387.552C-164.941 440.726 -128.315 505.618 -135.799 574.598C-130.884 502.722 -169.033 435.248 -200.368 379.826L-200.428 379.72C-233.791 320.614 -260.104 273.999 -228.485 242.424ZM-219.658 259.031C-170.531 209.916 -71.834 229.844 -31.9709 240.526C-23.3984 242.823 -17.6843 244.684 -15.7125 245.327L-15.7097 245.328C-15.3002 245.461 -15.0527 245.542 -14.9751 245.563C66.7931 280.025 106.76 341.667 107.355 434.038C107.863 511.418 79.8276 594.428 59.2988 654.826C58.7318 656.534 58.1672 658.233 57.6062 659.921L57.5733 660.02L57.5625 660.053C53.188 673.215 49.0397 685.697 45.7616 696.339C30.6069 746.591 -18.5648 758.037 -58.428 747.356L-59.7792 746.994C-110.362 732.743 -155.999 683.319 -140.544 607.296C-144.194 634.825 -139.286 660.308 -125.815 681.746C-111.829 704.322 -89.0957 721.276 -63.031 728.501L-61.9049 728.803C-24.2939 738.881 22.0384 728.122 36.3041 680.287C39.343 670.524 43.1914 659.125 47.2617 647.068L47.2627 647.065L47.2637 647.062L47.2785 647.018L47.9594 645.001C48.3039 643.98 48.6496 642.956 48.9963 641.927C68.0929 585.973 94.2135 509.209 93.7294 437.145C93.4313 397.719 85.1816 363.645 68.9641 335.885C50.1088 303.555 19.9355 278.332 -20.6109 261.191C-20.6517 261.18 -20.8113 261.129 -21.0841 261.041L-21.0845 261.04C-29.8549 258.207 -155.529 217.607 -211.821 273.925C-239.835 301.903 -216.935 342.558 -187.769 394.064L-187.485 394.568C-158.24 446.471 -122.405 510.067 -134.462 577.674C-125.433 507.35 -162.72 441.301 -193.239 387.239L-193.528 386.728L-193.594 386.611L-193.594 386.611C-224.482 331.793 -248.975 288.323 -219.658 259.031ZM-37.2488 258.423C-74.1842 248.526 -165.554 230.078 -210.771 275.413C-237.869 302.671 -215.298 342.755 -186.402 393.465C-159.169 441.499 -126.231 499.921 -130.926 562.443C-123.5 503.099 -155.104 447.262 -180.998 401.514L-181.214 401.131L-181.359 400.875C-207.984 353.772 -229.172 316.287 -203.22 290.472C-151.366 238.712 -35.2688 276.139 -27.6289 278.602L-27.6241 278.604C-27.4017 278.676 -27.2724 278.717 -27.2404 278.726C42.1734 307.946 77.5081 362.554 77.8349 440.611C78.1891 506.52 54.4471 576.727 37.0305 628.229L36.7712 628.996C32.3702 641.817 28.3755 654.024 25.1491 664.263C12.1345 708.33 -30.562 718.131 -65.02 708.898L-66.1461 708.597C-90.1838 701.914 -111.072 686.179 -123.903 665.602C-135.438 647.141 -140.162 625.533 -138.099 602.079C-149.842 669.979 -108.604 714.145 -62.6086 726.925C-25.5686 737.332 20.6429 727.024 34.8924 680.15C38.3602 669.01 42.6567 655.678 47.5847 641.791L48.1717 640.048L48.1719 640.048C66.9929 584.19 92.5727 508.273 92.197 437.459C91.6537 352.103 54.61 294.864 -21.0937 262.993C-21.2361 262.955 -21.6161 262.842 -22.2158 262.665L-22.2165 262.664C-24.4617 261.999 -29.7847 260.423 -37.2488 258.423ZM-202.11 291.735C-160.291 250.075 -76.4743 266.982 -42.4667 276.094C-35.3059 278.013 -30.321 279.67 -28.4796 280.282L-28.4789 280.282C-28.062 280.42 -27.8063 280.505 -27.7231 280.528C41.8555 310.034 75.8713 362.357 76.3025 440.924C76.7768 506.385 53.0356 576.59 35.619 628.092L35.3596 628.859C35.0254 629.833 34.6922 630.803 34.3606 631.768L34.3107 631.913L34.3016 631.939L34.3014 631.94C30.2874 643.623 26.4971 654.655 23.7374 664.126C10.8597 706.781 -30.8152 716.374 -64.5975 707.322L-65.7236 707.02C-108.429 694.888 -146.853 653.717 -134.961 590.43C-140.359 643.541 -106.516 678.277 -69.2614 688.692L-68.3606 688.933C-36.8303 697.382 2.29061 688.312 14.7297 648.195C16.5959 641.839 18.9918 634.742 21.5456 627.178L21.548 627.171C22.7701 623.551 24.0283 619.824 25.2818 616.02C41.2285 569.119 62.9038 504.441 62.6761 444.032C62.2361 372.704 29.9897 322.786 -33.3594 296.156C-33.393 296.147 -33.524 296.105 -33.748 296.033C-41.0382 293.686 -146.781 259.641 -194.108 306.914C-217.762 330.451 -198.546 364.514 -174.227 407.622L-174.089 407.868L-173.509 408.901C-149.467 451.769 -120.044 504.23 -129.038 559.76C-123.034 500.905 -154.134 445.625 -179.787 400.307L-179.932 400.049C-206.226 353.519 -227.086 316.606 -202.11 291.735ZM-47.52 294.052C-78.3746 285.784 -155.089 270.298 -193.058 308.402C-215.736 330.995 -196.849 364.485 -172.861 407.022L-172.721 407.269C-148.789 449.626 -119.678 501.227 -126.901 556.286C-126.7 555.425 -126.487 554.56 -126.262 553.689C-113.678 504.921 -139.711 458.84 -160.693 421.837C-170.824 403.939 -180.251 387.258 -183.911 372.676C-190.505 354.652 -191.051 339.059 -178.96 326.928C-136.032 284.015 -39.988 315.045 -33.7545 317.059C-33.5727 317.118 -33.4674 317.152 -33.4418 317.159C23.7823 341.424 53.0007 386.427 53.5539 451.026C53.8787 505.667 34.1183 564.099 19.5434 606.782C19.1579 607.93 18.7744 609.069 18.394 610.199C15.2492 619.543 12.308 628.283 10.0614 635.864C-0.780662 671.823 -36.1009 680.221 -64.7033 672.557L-65.6042 672.316C-94.3849 664.236 -120.89 640.319 -125.168 603.767C-128.956 593.255 -130.492 581.141 -128.89 567.556C-129.22 569.038 -129.578 570.522 -129.964 572.009C-146.29 634.74 -109.708 675.682 -68.839 687.115C-37.8799 695.894 0.895178 687.214 12.6424 647.877C14.5086 641.521 16.9045 634.424 19.4582 626.86L19.4607 626.853C20.6828 623.233 21.941 619.506 23.1945 615.703C39.1412 568.801 60.9814 504.408 60.6933 444.225C60.3137 372.672 29.2214 324.753 -34.1277 298.123C-34.7431 297.717 -39.6375 296.164 -47.52 294.052ZM-122.984 603.692C-114.627 626.336 -95.5295 641.282 -75.0088 647.081L-74.3331 647.262C-49.5593 653.9 -18.9568 646.893 -9.60727 615.603C-7.43389 608.352 -4.46526 599.774 -1.40795 590.94L-0.970068 589.675C25.3919 512.011 69.3137 382.325 -47.3263 332.967C-47.4912 332.682 -51.4848 331.37 -58.016 329.62C-83.015 322.922 -144.849 310.457 -175.51 341.105C-183.324 348.972 -184.97 358.447 -182.757 369.428C-179.581 378.665 -174.599 388.716 -168.718 399.526C-176.533 382.055 -179.002 367.058 -167.838 355.713C-133.961 321.771 -58.6179 346.041 -53.0947 347.82L-52.9973 347.852C-52.9098 347.88 -52.8475 347.9 -52.8113 347.911C-52.7976 347.915 -52.7876 347.918 -52.7813 347.92C-7.46131 367.064 15.5805 402.687 15.9097 453.709C16.2022 496.579 0.566181 542.603 -10.8472 576.199L-10.9873 576.611C-12.1325 580.133 -13.2855 583.527 -14.3882 586.773L-14.3884 586.774L-14.3887 586.775C-15.9275 591.304 -17.3685 595.546 -18.5543 599.447C-27.0751 628.544 -55.1239 635.029 -77.8707 628.934L-78.5463 628.753C-98.2216 623.163 -116.559 608.271 -123.317 585.646C-123.812 591.971 -123.674 597.991 -122.984 603.692ZM-121.509 612.154C-111.744 631.039 -94.2371 643.595 -75.7168 648.823L-74.8159 649.064C-49.1413 655.944 -17.2316 648.562 -7.80553 616.086C-7.08912 613.928 -6.34302 611.66 -5.56621 609.298L-5.55904 609.276L-5.55605 609.267C-3.62239 603.387 -1.49846 596.929 0.83164 590.158C13.7492 551.859 31.3694 499.612 31.1727 450.798C30.9567 393.048 4.82665 352.735 -46.558 331.001C-46.5844 330.993 -46.6866 330.961 -46.8614 330.904L-46.866 330.903L-46.8693 330.902L-46.871 330.901C-52.7593 329.001 -138.445 301.356 -176.845 339.782C-182.634 345.512 -185.22 352.144 -185.493 359.522C-187.921 347.313 -186.06 336.781 -177.339 328.087C-143.054 293.823 -73.8923 307.769 -45.9656 315.252C-40.4481 316.73 -36.55 317.916 -34.7225 318.472C-34.4745 318.547 -34.2647 318.611 -34.0941 318.663C-33.8797 318.727 -33.7273 318.772 -33.6391 318.796C96.932 373.818 47.8246 519.253 18.3128 605.97C17.9431 607.07 17.5752 608.163 17.2102 609.248L17.1615 609.392L17.161 609.394C14.0172 618.736 11.0768 627.472 8.83078 635.051C-1.76987 670.109 -36.2335 678.013 -63.935 670.591L-64.8359 670.349C-90.5485 663.122 -114.443 642.959 -121.509 612.154ZM-124.807 579.586C-125.495 584.588 -125.804 589.417 -125.766 594.068C-127.816 584.467 -128.054 573.734 -125.931 561.953C-126.292 568.217 -125.876 574.101 -124.807 579.586ZM-122.777 580.468C-117.396 604.972 -98.6129 621.034 -78.2284 626.666C-56.2176 632.805 -29.0256 626.815 -20.5813 598.903C-18.5456 592.207 -15.9227 584.22 -12.9538 575.843L-12.876 575.613C10.2847 507.2 48.9397 393.021 -53.7749 349.826C-53.9446 349.924 -55.2645 349.543 -57.4891 348.902C-59.0082 348.464 -60.9492 347.904 -63.234 347.292C-85.3051 341.378 -139.587 330.454 -166.563 357.261C-182.443 373.283 -169.044 397.15 -152.019 427.3C-138.791 450.679 -123.276 478.183 -119.412 507.709C-118.879 510.233 -118.407 512.77 -118.001 515.321C-118.221 485.934 -133.873 458.338 -146.952 435.416L-147.206 434.965C-161.651 409.292 -174.052 387.25 -159.297 372.485C-128.982 342.227 -62.3386 364.67 -59.4712 365.68C-20.2158 382.233 -0.0371266 413.228 0.180057 457.46C0.285266 494.904 -13.0546 534.78 -23.0475 563.966C-23.529 565.407 -24.0035 566.823 -24.4688 568.211L-24.4696 568.213L-24.4743 568.227L-24.4753 568.23C-26.3669 573.874 -28.1057 579.061 -29.5445 583.708C-36.9791 608.752 -61.3919 614.28 -80.9857 609.03L-81.6614 608.849C-99.227 603.98 -115.391 590.605 -120.951 570.232C-121.74 573.722 -122.345 577.135 -122.777 580.468ZM-121.997 565.652C-122.041 565.823 -122.085 565.995 -122.129 566.166C-122.808 568.78 -123.386 571.353 -123.869 573.884C-124.662 566.931 -124.42 559.385 -122.916 551.284C-123.163 556.368 -122.829 561.162 -121.997 565.652ZM-119.752 565.343C-115.613 587.422 -98.8926 601.885 -80.893 606.882L-80.2174 607.063C-61.5244 612.072 -38.3583 606.693 -31.0607 583.061C-29.5353 578.134 -27.629 572.437 -25.5916 566.347L-25.5911 566.346L-25.5692 566.28C-25.2173 565.229 -24.8616 564.166 -24.5033 563.093L-24.4253 562.861C-4.47472 503.727 28.8292 405.013 -59.7287 367.542L-68.2869 365.249C-87.205 360.18 -134.384 350.677 -157.512 373.929C-171.316 387.61 -159.505 408.396 -144.728 434.323L-144.587 434.571C-131.635 457.534 -116.222 484.856 -115.667 514.233C-114.155 487.879 -128.153 462.946 -139.677 442.419L-139.826 442.154C-152.295 420.225 -162.952 401.438 -150.125 388.702C-125.74 364.332 -73.753 380.356 -66.3337 382.643C-65.9295 382.767 -65.6576 382.851 -65.5296 382.885C11.2399 415.284 -17.5037 500.034 -34.7015 550.705C-36.4122 555.649 -37.9019 560.344 -39.1932 564.414L-39.1955 564.421L-39.1964 564.424C-39.5193 565.442 -39.8299 566.421 -40.1284 567.355C-46.8226 588.734 -67.4348 593.591 -84.326 589.065L-84.7765 588.944C-99.4568 584.85 -113.086 573.628 -117.936 556.633C-118.425 559.526 -119.028 562.43 -119.752 565.343ZM-119.231 550.659C-119.563 553.499 -120.002 556.348 -120.555 559.206C-120.927 554.327 -120.709 549.126 -119.8 543.619C-119.768 546.05 -119.573 548.398 -119.231 550.659ZM-120.429 514.092C-122.367 502.791 -125.602 491.732 -129.631 480.993C-123.559 498.196 -119.884 516.294 -121.135 534.951C-120.098 527.919 -119.922 520.957 -120.429 514.092ZM-117.088 550.711C-114.012 569.947 -99.7751 582.575 -84.2333 586.917C-68.3034 591.427 -48.5478 587.065 -42.4409 566.976L-42.2789 566.465L-42.1702 566.122C-42.0115 565.62 -41.8503 565.11 -41.6865 564.591L-41.6654 564.525C-40.2965 560.19 -38.7464 555.283 -36.9536 550.101C-19.9972 500.332 8.21934 416.647 -66.5835 385.017C-66.6264 385.005 -66.7573 384.962 -66.9692 384.891C-67.868 384.589 -70.2242 383.8 -73.5048 382.921C-89.4952 378.636 -129.121 370.674 -148.85 390.251C-160.285 401.584 -150.638 418.804 -138.334 440.768L-138.112 441.164C-127.13 460.449 -114.095 483.5 -113.459 508.273C-112.017 486.527 -123.652 465.838 -133.21 448.995C-143.372 431.065 -152.215 415.419 -141.689 404.963C-121.667 384.918 -79.0616 398.06 -72.9828 399.935C-72.6515 400.038 -72.4287 400.106 -72.324 400.134C-9.42985 426.642 -32.8149 495.921 -46.8632 537.539L-46.8662 537.548C-47.4836 539.507 -48.1163 541.392 -48.7232 543.199L-48.7234 543.2C-49.702 546.115 -50.613 548.828 -51.2835 551.33C-56.6662 568.717 -73.703 572.842 -87.4411 569.161L-87.8916 569.04C-101.771 565.141 -113.858 553.552 -116.271 536.883C-116.282 541.462 -116.544 546.072 -117.088 550.711ZM-139.963 406.632C-124.144 390.836 -91.8455 397.318 -78.783 400.818L-78.7817 400.818C-75.4042 401.723 -73.3778 402.266 -73.213 402.552C-12.2809 428.292 -35.3119 496.228 -49.1184 536.944C-50.7316 542.064 -52.2241 546.733 -53.5356 550.727C-58.3311 566.822 -74.0003 570.348 -86.8377 566.908L-87.2881 566.788C-104.344 561.976 -119.553 544.866 -112.778 518.68C-106.085 492.818 -119.54 468.733 -130.516 449.087C-130.749 448.67 -130.981 448.254 -131.212 447.841L-131.802 446.78C-141.462 429.416 -149.042 415.793 -139.963 406.632Z" fill="url(#paint0_linear_9_1053)"/>
<defs>
<linearGradient id="paint0_linear_9_1053" x1="-427.044" y1="391.59" x2="274.817" y2="579.653" gradientUnits="userSpaceOnUse">
<stop stop-color="#FFD110" stop-opacity="0"/>
<stop offset="0.286458" stop-color="#109BFF"/>
<stop offset="0.614583" stop-color="#FF0469"/>
<stop offset="1" stop-color="#04DA00" stop-opacity="0"/>
</linearGradient>
</defs>
</svg>
