<svg width="374" height="996" viewBox="0 0 374 996" fill="none" xmlns="http://www.w3.org/2000/svg">
<path opacity="0.33" fill-rule="evenodd" clip-rule="evenodd" d="M315.757 7.40059L318.234 8.06442C343.848 15.1692 367.745 26.8828 389.594 42.6342C412.448 59.1378 431.393 79.4216 445.874 102.854C478.972 155.897 486.869 221.016 468.491 291.406C430.265 438.558 508.66 577.608 571.884 689.748L572.455 690.762C601.187 741.187 628.209 788.981 640.19 829.848C653.623 875.208 647.861 908.424 621.801 934.512C594.478 961.709 557.239 979.974 510.488 988.689C473.322 995.869 430.321 996.9 382.385 992.021C305.125 984.129 240.384 962.684 233.049 960.254C232.644 960.12 232.414 960.044 232.367 960.031C189.629 942.062 152.228 919.488 121.395 893.122C92.5125 868.486 68.336 839.8 49.8707 807.816L49.8695 807.814C48.7159 805.816 47.5623 803.818 46.6338 801.88C82.3174 865.995 141.232 920.887 232.548 959.355C232.612 959.373 232.893 959.464 233.381 959.624C241.426 962.254 305.741 983.278 382.341 991.285C457.488 999.11 559.864 995.402 621.471 933.941C647.185 908.243 653.172 875.087 639.679 829.952C627.473 789.025 600.676 741.291 572.17 690.927C540.201 634.566 504.232 570.615 481.378 503.661C456.55 430.649 451.379 364.422 465.534 301.602C429.707 442.636 505.03 575.955 565.692 683.326L565.692 683.326L565.9 683.695L567.376 686.321L568.393 688.132C594.77 735.075 619.641 779.34 630.953 817.476C643.622 861.182 637.936 893.212 613.14 918.19C586.855 944.217 550.983 961.883 506.275 970.18C470.416 976.986 429.112 977.988 383.039 973.368C308.456 965.586 245.666 944.933 239.438 942.884L239.437 942.884C239.136 942.785 238.967 942.73 238.936 942.721C197.939 925.46 161.994 903.759 132.332 878.431C104.62 854.832 81.3881 827.124 63.522 796.508C57.257 785.656 51.5631 774.475 46.5007 762.739C78.6886 836.297 138.254 899.57 239.117 942.046C239.182 942.063 239.461 942.154 239.943 942.311C247.788 944.869 309.538 965.002 382.995 972.632C455.093 980.122 553.563 976.575 612.585 917.559C637.321 892.806 642.946 861.001 630.157 817.745C618.489 778.41 592.621 732.615 565.269 684.25C534.62 630.173 499.909 568.732 478.088 504.228C455.411 437.19 449.733 376.092 461.058 318.249C431.34 450.742 502.107 575.882 559.285 676.854C585.648 723.505 610.362 767.302 621.716 805.104C634.132 847.053 628.808 877.732 604.824 901.479C579.742 926.622 545.297 943.462 502.348 951.507C468.021 957.999 428.189 958.913 384.263 954.385C312.638 946.927 252.626 927.23 246.573 925.243L246.573 925.243C246.275 925.146 246.108 925.091 246.076 925.082C232.329 919.262 219.215 912.957 206.746 906.174C218.998 912.77 231.902 918.935 245.461 924.676C245.567 924.704 245.948 924.824 246.59 925.027C250.025 926.109 260.94 929.548 277.261 933.921C302.71 940.74 341.134 949.587 383.648 953.978C452.698 961.135 547.037 957.688 603.698 901.177C627.457 877.37 632.72 846.916 620.409 805.478C609.63 768.922 585.895 726.63 560.663 681.672L560.663 681.672L559.545 679.679L558.203 677.288L556.442 674.157C527.606 622.922 495.224 565.386 474.573 504.735C452.483 439.616 447.338 380.655 458.546 324.549C428.778 452.209 497 572.953 552.159 670.116L553.652 672.781L554.558 674.396L554.616 674.501C578.701 717.47 601.44 758.039 611.683 793.001C623.62 833.132 618.433 862.399 595.366 885.427C571.322 909.399 538.245 925.641 497.053 933.432C464.258 939.611 426.063 940.722 383.834 936.165C314.866 929.036 256.935 909.748 251.967 908.094C251.758 908.025 251.642 907.986 251.624 907.981C178.788 877.12 124.518 831.922 90.5989 773.831C61.5217 723.796 46.5459 662.574 46.2105 591.757C45.45 462.168 92.4011 323.88 126.736 222.765C127.82 219.529 128.896 216.319 129.963 213.14L129.964 213.136L129.965 213.132L129.966 213.129L129.968 213.125C137.223 191.494 144.01 171.258 149.333 153.747C161.004 115.597 185.459 87.3891 220.096 72.5311C251.142 59.3661 288.332 57.503 325.267 67.3998L327.519 68.0032C373.958 81.1706 415.074 111.499 440.018 151.736C466.643 194.544 474.859 246.08 463.838 301.906C496.084 164.171 414.711 74.2075 323.998 48.7143L321.746 48.1108C269.173 34.0239 207.316 41.8133 168.54 84.17C180.719 70.6429 195.682 59.98 213.136 52.5622C244.588 38.7818 283.415 37.1159 322.152 47.4955L324.629 48.1593C373.32 61.9301 416.222 93.7024 442.215 135.427C470.316 180.463 478.564 234.87 466.823 293.546C500.988 149.47 415.977 55.4786 321.108 28.8697L318.856 28.2662C246.111 8.77429 156.061 29.5439 128.27 121.55C122.39 141.084 114.7 163.785 106.515 187.947L106.514 187.948L106.514 187.949C105.527 190.863 104.532 193.799 103.533 196.753C67.7985 301.896 21.0404 440.243 15.8605 572.416C20.8073 439.92 67.6187 301.499 102.473 198.434L102.473 198.434L102.474 198.431L103.082 196.632C104.073 193.706 105.058 190.797 106.036 187.91L106.062 187.832C114.248 163.668 121.939 140.965 127.819 121.429C140.456 79.6753 166.986 49.1274 204.809 33.1918C238.199 18.4825 278.558 16.503 318.872 27.305L321.349 27.9688C372.067 42.2827 416.754 75.499 443.962 118.998C474.244 167.67 482.542 226.953 468.121 290.977C507.952 137.249 418.356 36.8222 318.053 8.7401L315.576 8.07628C239.903 -12.2001 146.217 9.52643 117.175 105.301C110.344 128.092 101.18 155.086 91.3679 183.597L90.9997 184.685L90.9995 184.686C55.0385 291.004 8.2008 429.478 0.541277 563.105C7.97447 428.786 54.8409 289.764 90.0742 185.249L90.6923 183.416C92.0077 179.496 93.315 175.605 94.6101 171.751C102.754 147.518 110.411 124.732 116.499 105.12C129.558 61.7893 157.352 30.1314 196.662 13.1462C231.585 -1.87669 273.866 -3.82384 315.757 7.40059ZM15.4103 601.132C15.3271 591.603 15.4839 582.025 15.8605 572.416C15.535 581.133 15.3908 589.825 15.4431 598.479C15.4282 599.362 15.4172 600.247 15.4103 601.132ZM15.8393 618.62C15.6028 612.811 15.4613 606.981 15.4103 601.132C15.3641 606.987 15.494 612.866 15.8393 618.62ZM138.974 137.454C145.585 115.675 155.821 98.0631 168.54 84.17C155.439 98.7205 145.558 116.585 139.26 137.289C132.912 158.279 124.576 183.081 115.593 209.399C79.8258 314.958 30.9598 459.493 31.6233 594.849C32.075 668.835 47.5733 732.611 77.9694 784.93C106.926 834.816 150.201 875.413 206.746 906.174C89.9058 843.271 32.3639 741.211 31.398 594.788C30.6742 459.657 79.5402 315.123 115.308 209.564C124.291 183.246 132.626 158.444 138.974 137.454ZM384.076 935.265C343.424 931.131 306.577 922.706 282.253 916.189C270.363 913.003 261.467 910.219 256.562 908.684C253.849 907.835 252.357 907.368 252.255 907.426C115.23 849.468 48.2477 746.31 47.397 591.834C46.8013 462.53 93.5272 324.182 127.863 223.066C128.682 220.623 129.499 218.191 130.311 215.772L130.312 215.769C137.82 193.407 144.949 172.176 150.459 154.049C175.973 69.6399 258.587 50.4984 325.251 68.361L327.278 68.9041C412.884 93.0106 489.538 176.698 462.472 305.085C471.125 254.296 462.909 207.293 438.556 168C414.541 129.702 375.331 100.367 330.859 87.9679L328.607 87.3644C293.248 77.89 257.531 79.6649 228.528 92.4118C195.319 106.446 171.962 133.257 160.939 169.892C155.852 186.53 149.363 205.697 142.411 226.227L142.41 226.229L142.41 226.23L142.41 226.231C141.345 229.375 140.27 232.552 139.187 235.756L138.852 236.747L138.851 236.748C106.263 333.168 61.7001 465.014 62.3302 588.352C62.3906 596.422 62.6472 604.365 63.0998 612.178C69.4589 732.313 121.03 817.695 219.792 871.752C232.06 878.55 245.033 884.826 258.704 890.567C258.737 890.576 258.907 890.632 259.209 890.732C265.042 892.655 320 910.778 385.223 917.468C425.59 921.766 461.802 920.848 493.35 914.818C532.724 907.505 564.148 892.028 587.215 869C609.019 847.083 614.13 819.003 602.671 780.689C592.563 746.641 570.344 707.245 546.728 665.373L545.544 663.274C494.082 572.555 430.729 460.632 454.35 341.827C445.788 392.779 451.359 446.577 471.283 505.301C491.383 564.517 523.126 620.818 551.302 670.611L552.457 672.656C577.235 716.542 600.458 757.674 610.887 793.271C622.659 833.116 617.532 862.158 594.811 884.795C540.737 938.861 450.302 942.147 384.076 935.265ZM258.089 890.161C244.617 884.488 231.853 878.354 219.792 871.752C169.366 843.808 130.861 807.03 104.821 762.193C80.3823 720.153 66.4314 669.697 63.0998 612.178C62.6958 604.547 62.4743 596.775 62.4347 588.862C61.7445 465.749 106.307 333.904 138.896 237.484L138.896 237.483L139.231 236.492C147.61 212.426 155.178 189.59 161.043 170.403C185.306 89.7619 264.284 71.5774 328.02 88.6555L330.047 89.1986C411.664 112.001 484.766 191.835 459.297 314.161C467.385 265.945 459.694 221.238 436.419 184.083C413.619 147.559 376.194 119.668 333.749 107.812L331.722 107.269C297.94 98.2169 264.145 100.024 235.609 111.93C203.992 125.425 181.673 151.067 171.132 185.9C165.448 204.412 158.243 225.896 150.39 248.897L150.387 248.905C119.202 340.966 76.4738 467.105 77.2031 585.095C77.7563 649.694 91.2967 705.463 117.736 750.928C148.627 804.104 197.93 845.316 264.537 873.302C264.557 873.307 264.627 873.33 264.744 873.368C264.821 873.393 264.919 873.425 265.037 873.464C270.683 875.322 322.87 892.492 385.141 898.859C423.42 902.839 458.16 902.01 488.176 896.293C525.567 889.173 555.563 874.52 577.593 852.663C598.645 831.751 603.168 804.961 592.473 768.301C582.9 735.836 561.822 698.421 539.354 658.539L538.193 656.477L538.056 656.235C489.218 569.745 429.003 463.107 451.414 350.019C443.356 398.57 448.798 449.959 467.708 506.033C486.723 562.245 516.964 615.739 543.707 663.043L543.707 663.044L543.707 663.044L543.708 663.045L543.708 663.045L544.176 663.873C568.291 706.302 590.802 746.611 601.139 781.003C612.432 819.031 607.668 846.721 585.924 868.413C534.211 919.973 447.907 923.16 384.729 916.611C345.999 912.51 310.729 904.507 287.531 898.292C279.15 896.046 272.296 894.044 267.309 892.588L267.309 892.588L267.309 892.588L267.308 892.588L267.308 892.588L267.307 892.588L267.306 892.587L267.306 892.587L267.305 892.587C261.843 890.992 258.622 890.052 258.089 890.161ZM292.524 880.56C314.821 886.534 348.289 894.053 385.382 897.958C445.737 904.233 527.911 901.147 577.323 851.866C598.029 831.345 602.492 804.78 591.902 768.631C582.104 735.832 560.522 697.461 537.561 657.032L537.072 656.165L537.071 656.164L537.071 656.164C511.651 611.149 482.741 559.957 464.704 506.435C444.842 447.721 440.701 394.73 451.903 344.302C451.894 344.336 451.885 344.37 451.876 344.405C422.664 457.031 482.913 563.696 531.412 649.35L532.58 651.426C553.895 689.31 573.976 725.001 583.01 755.869C593.227 790.711 588.841 816.089 568.991 836.116C521.819 883.341 443.325 886.207 385.569 880.145C325.995 874.112 275.918 857.369 271.287 855.821C271.077 855.751 270.961 855.712 270.941 855.707C207.592 829.077 160.629 789.94 131.447 739.395C106.387 695.989 93.3091 643 93.0975 581.63C92.4963 469.464 133.087 349.507 162.84 261.889C163.939 258.599 165.03 255.34 166.108 252.118L166.11 252.111C172.221 233.848 177.938 216.761 182.512 201.984C192.63 168.728 213.852 144.482 243.876 131.526C270.533 120.323 302.857 118.605 334.837 127.174L336.864 127.717C377.282 139.03 412.921 165.476 434.507 200.227C458.486 238.639 465.097 285.373 453.939 335.817C453.961 335.732 453.983 335.646 454.005 335.56C486.114 212.124 414.059 131.503 333.733 108.773L331.706 108.23C270.898 91.9367 195.781 109.225 172.544 186.036C166.92 204.323 159.655 226.033 151.802 249.033L151.799 249.041C120.614 341.103 77.8854 467.242 78.4499 584.946C79.3622 725.68 140.332 819.744 265.004 872.461C265.067 872.478 265.329 872.563 265.778 872.708L265.779 872.708C268.517 873.593 278.211 876.724 292.524 880.56ZM386.035 879.304C350.804 875.658 318.973 868.335 297.802 862.663C288.279 860.111 280.977 857.898 276.52 856.547L276.52 856.547C273.493 855.629 271.779 855.11 271.573 855.152C152.966 805.026 95.0842 715.651 94.2236 581.932C93.6224 469.766 134.153 350.034 163.906 262.416C164.5 260.639 165.091 258.871 165.679 257.113C166.165 255.659 166.649 254.212 167.131 252.773L167.172 252.649L167.175 252.641C173.286 234.377 179.003 217.289 183.578 202.511C205.789 129.528 277.105 112.912 334.986 128.421L336.788 128.903C412.367 150.108 479.874 225.142 452.261 339.97C461.169 294.139 454.346 251.672 432.535 216.596C412.103 183.844 378.31 158.617 339.919 147.847L338.118 147.364C307.713 139.217 276.922 140.622 251.693 151.001C223.036 163.358 203.078 186.494 193.443 217.948C188.914 233.189 182.854 251.091 176.483 269.907L176.481 269.915L175.588 272.551L174.841 274.76L174.262 276.473C146.275 359.332 108.074 472.435 108.767 578.104C109.087 636.365 121.193 686.68 145.159 727.862C172.857 775.837 217.419 813.123 277.511 838.398C277.53 838.403 277.643 838.44 277.844 838.506C282.264 839.962 329.635 855.564 386.222 861.492C440.705 867.159 515.294 864.454 560.105 819.735C578.916 800.878 583.226 776.687 573.488 743.662C565.17 715.003 546.647 682.051 526.95 647.012L526.95 647.012L526.932 646.98L525.504 644.44L524.512 642.673C479.397 562.909 423.392 463.642 447.893 358.793C438.913 404.907 443.361 453.637 461.413 507.002C478.819 558.254 506.276 607.13 530.72 650.13C575.757 729.787 611.293 792.655 568.436 835.485C521.55 882.545 443.341 885.245 386.035 879.304ZM302.795 844.931C322.839 850.302 353.095 857.202 386.463 860.591C440.721 866.198 515.024 863.658 559.55 819.103C600.105 778.554 566.384 718.827 523.595 643.393C481.318 568.652 429.546 476.907 442.907 379.362C426.452 474.07 476.867 563.538 517.836 636.056C537.499 670.774 556.009 703.494 564.191 731.515C573.45 762.721 569.442 785.786 551.383 803.638C509.158 845.913 438.474 848.457 386.815 843.063C330.92 837.259 284.245 821.373 283.854 821.027C227.02 797.108 185.024 761.958 158.585 716.492C135.937 677.595 124.355 629.834 124.09 574.968C123.582 474.535 159.853 367.421 186.432 288.931L186.72 288.081C193.382 268.623 199.577 250.007 204.252 234.362C213.239 204.424 232.325 182.743 259.328 171.151C283.536 160.981 312.405 159.544 341.232 167.268L343.034 167.751C379.399 177.977 411.181 201.701 430.788 233.025C449.999 263.799 456.823 300.507 451.077 340.069C471.69 236.257 409.211 168.547 339.618 148.973L337.816 148.49C283.088 133.826 215.408 149.486 194.448 218.7C190.076 233.416 184.322 250.435 178.161 268.66L178.123 268.772C177.562 270.432 176.997 272.103 176.43 273.782L175.846 275.512L175.232 277.329C147.25 360.176 109.14 473.007 109.833 578.631C110.581 705.562 165.6 790.307 277.917 837.782C278.124 837.74 279.775 838.243 282.673 839.127L282.674 839.127L282.675 839.127C286.917 840.421 293.83 842.529 302.795 844.931ZM386.891 841.877C355.445 838.52 326.766 832.042 307.848 826.973C293.659 823.172 284.772 820.307 284.607 820.022C178.129 775.077 126.199 695.021 125.502 575.105C124.934 474.897 161.205 367.784 187.783 289.294L188.071 288.443C189.893 282.918 191.713 277.471 193.493 272.145C198.002 258.654 202.251 245.941 205.603 234.724C225.312 169.278 289.356 154.575 341.156 168.455L342.732 168.877C408.476 187.42 467.612 251.402 448.012 349.837C453.363 312.525 446.876 278.129 428.877 249.169C410.484 219.618 380.262 197.279 346.15 187.656L344.573 187.233C317.322 179.931 289.925 181.28 267.249 191.136C241.899 201.965 223.791 222.7 215.286 250.837C212.115 261.382 208.082 273.302 203.798 285.964C202.092 291.006 200.346 296.165 198.599 301.402C173.428 375.523 139.032 476.864 139.639 571.893C139.952 623.875 150.847 668.796 172.175 705.409C197.131 748.305 236.787 781.38 290.364 803.943C290.384 803.948 290.497 803.986 290.699 804.053L290.705 804.055C294.922 805.452 337.234 819.477 387.408 824.635C436.244 829.755 502.797 827.311 542.721 787.317C579.593 750.608 549.333 696.877 510.996 629.154C472.124 560.573 424.106 475.855 440.444 386.039C427.483 478.485 476.583 565.389 516.689 636.375L516.754 636.49C557.235 707.926 588.918 764.452 550.663 802.721C508.499 844.77 438.551 847.27 386.891 841.877ZM313.066 809.302C330.858 814.069 357.9 820.349 387.77 823.284C436.156 828.283 502.198 825.944 542.002 786.4C578.009 750.478 548.412 697.932 510.809 631.171L510.809 631.171L510.079 629.874C471.635 562.053 424.515 478.628 438.829 389.917C421.353 475.677 467.059 556.728 504.155 622.252L504.216 622.36C540.217 686.034 568.671 736.361 534.06 770.995C496.497 808.484 434.074 810.828 388.286 806.042C341.071 801.208 301.537 788.14 297.494 786.803L297.493 786.803L297.492 786.803L297.353 786.757L297.263 786.727C297.204 786.708 297.169 786.696 297.158 786.693C246.839 765.486 209.584 734.261 186.051 694.161C166.102 659.608 155.67 617.466 155.473 568.652C154.997 479.839 187.029 384.901 210.457 315.468L210.764 314.559C211.123 313.494 211.482 312.433 211.84 311.376L212.541 309.302L212.57 309.215L212.571 309.214C217.743 293.924 222.624 279.492 226.381 267.086C244.114 208.111 301.519 194.767 347.913 207.198L349.49 207.62C381.575 216.7 410.011 237.596 427.19 265.373C444.849 293.662 450.609 327.377 444.551 363.825C465.761 268.7 409.089 206.675 346.238 189.127L344.661 188.705C295.79 175.61 235.546 189.641 216.863 251.259C212.429 266.003 206.536 283.493 200.176 301.825C175.005 375.946 140.609 477.286 141.276 572.09C141.861 685.217 190.928 760.643 291.116 802.937C291.23 802.871 292.603 803.297 295.074 804.064C298.781 805.213 304.958 807.129 313.066 809.302ZM388.198 804.57C360.25 801.668 334.785 795.81 318.119 791.344C307.716 788.557 300.417 786.261 298.078 785.525L298.078 785.525L298.077 785.525L298.074 785.524C297.631 785.384 297.366 785.301 297.295 785.282C203.397 745.639 157.253 674.617 156.72 568.504C156.408 480.024 188.346 385.365 211.77 315.944L211.77 315.944L212.115 314.921C212.389 314.11 212.662 313.301 212.935 312.493L213.922 309.577L213.922 309.576C219.094 294.285 223.975 279.854 227.732 267.448C245.164 209.599 301.772 196.524 347.491 208.775L348.842 209.137C406.851 225.373 459.01 281.588 442.166 368.05C446.482 335.937 440.664 306.322 425.053 281.456C409.028 255.679 382.438 236.002 352.38 227.465L351.028 227.103C307.562 215.456 254.018 227.903 237.596 282.885C233.646 295.827 228.581 311.126 223.049 327.265L222.519 328.831C200.544 393.759 170.632 482.135 171.203 564.901C171.508 610.606 181.193 650.134 199.823 682.403C221.586 720.097 256.501 749.247 303.562 769.099C303.727 769.384 342.416 782.647 388.714 787.329C431.454 791.78 489.971 789.597 525.008 754.328C557.321 721.972 530.839 675.068 497.144 615.386L497.089 615.29C463.122 555.213 421.443 481.484 434.925 403.264C424.319 484.582 467.416 560.71 502.727 623.076L503.168 623.856C538.66 686.641 566.689 736.224 532.889 769.958C495.672 807.056 433.76 809.295 388.198 804.57ZM524.003 753.576C471.252 806.306 365.002 784.837 322.211 773.371C313.03 770.911 306.738 768.891 304.624 768.212L304.623 768.212L304.622 768.212L304.62 768.211C304.195 768.075 303.939 767.993 303.864 767.972C215.866 730.634 172.75 664.527 172.329 565.203C171.918 482.07 202.023 393.117 224.043 328.052L224.055 328.017C229.646 311.653 234.711 296.354 238.662 283.412C255.068 229.391 307.815 217.213 350.606 228.679L351.957 229.041C404.686 243.845 452.297 294.184 440.211 371.492C442.503 344.373 436.854 319.272 423.531 297.946C408.496 273.882 383.691 255.648 355.66 247.655L354.308 247.292C313.77 236.43 263.637 247.86 248.18 299.238C245.644 308.049 242.31 317.926 238.752 328.463L238.752 328.464L238.752 328.464C237.424 332.4 236.064 336.427 234.703 340.526C214.175 400.925 186.079 484.159 186.526 561.765C186.776 604.075 195.713 640.989 213.249 671.034C233.528 706.158 266.102 733.232 309.906 751.728C309.919 751.732 309.945 751.74 309.984 751.752C310.013 751.761 310.048 751.772 310.091 751.786C310.166 751.81 310.262 751.841 310.379 751.879C319.5 754.828 455.529 798.811 516.347 738.006C546.662 707.748 521.948 663.952 490.474 608.448C460.459 555.273 423.832 490.381 431.318 421.4C426.402 493.277 464.551 560.751 495.887 616.174L495.946 616.28C529.31 675.386 555.622 722.001 524.003 753.576ZM515.177 736.969C466.05 786.084 367.352 766.155 327.489 755.474C318.917 753.177 313.203 751.316 311.231 750.673C310.82 750.539 310.571 750.458 310.493 750.437C228.725 715.975 188.758 654.333 188.163 561.962C187.655 484.582 215.691 401.572 236.219 341.173C236.655 339.861 237.09 338.553 237.522 337.252L237.945 335.98L237.956 335.947C242.33 322.785 246.479 310.302 249.757 299.661C264.911 249.409 314.083 237.962 353.946 248.644L355.298 249.006C405.881 263.257 451.518 312.682 436.062 388.706C439.713 361.176 434.804 335.692 421.333 314.254C407.348 291.678 384.614 274.724 358.549 267.499L357.423 267.197C319.812 257.119 273.48 267.878 259.214 315.713C256.174 325.479 252.324 336.882 248.253 348.943L248.233 349.002L248.087 349.434L247.994 349.71C247.506 351.156 247.015 352.61 246.522 354.072C227.425 410.027 201.305 486.791 201.789 558.855C202.087 598.281 210.337 632.355 226.554 660.115C245.409 692.445 275.583 717.668 316.129 734.809C316.17 734.82 316.33 734.871 316.603 734.96C325.373 737.793 451.048 778.393 507.339 722.075C535.353 694.097 512.453 653.442 483.287 601.936L483.003 601.432C453.757 549.528 417.922 485.931 429.981 418.323C420.95 488.648 458.238 554.699 488.758 608.761L489.046 609.272L489.112 609.389C520 664.207 544.493 707.677 515.177 736.969ZM332.767 737.577C369.702 747.474 461.072 765.922 506.29 720.587C533.387 693.329 510.816 653.245 481.92 602.535C454.688 554.502 421.75 496.081 426.444 433.559C419.019 492.902 450.622 548.738 476.516 594.486L476.733 594.869L476.877 595.125C503.502 642.228 524.69 679.713 498.738 705.528C446.885 757.288 330.787 719.86 323.147 717.398L323.142 717.396C322.92 717.324 322.791 717.283 322.759 717.274C253.345 688.054 218.01 633.446 217.683 555.389C217.329 489.48 241.071 419.273 258.488 367.77L258.747 367.004C263.148 354.183 267.143 341.976 270.369 331.737C283.384 287.67 326.08 277.869 360.538 287.102L361.664 287.403C385.702 294.086 406.59 309.821 419.422 330.398C430.956 348.858 435.68 370.466 433.617 393.92C445.36 326.02 404.122 281.855 358.127 269.075C321.087 258.668 274.875 268.976 260.626 315.85C257.158 326.99 252.861 340.322 247.933 354.209L247.347 355.951C228.525 411.809 202.945 487.727 203.321 558.541C203.864 643.897 240.908 701.136 316.612 733.007C316.754 733.045 317.132 733.157 317.729 733.334L317.734 733.335L317.735 733.336L317.736 733.336L317.738 733.337C319.986 734.002 325.307 735.578 332.767 737.577ZM497.628 704.265C455.81 745.925 371.993 729.018 337.985 719.906C330.823 717.987 325.838 716.33 323.997 715.718C323.58 715.579 323.325 715.495 323.241 715.472C253.663 685.966 219.647 633.643 219.216 555.076C218.741 489.616 242.482 419.411 259.899 367.908L260.159 367.141L260.556 365.983L261.217 364.059L261.217 364.058L261.218 364.058C265.231 352.376 269.021 341.344 271.781 331.874C284.659 289.219 326.333 279.626 360.116 288.678L361.242 288.98C403.947 301.112 442.372 342.283 430.479 405.572C435.878 352.46 402.034 317.723 364.779 307.308L363.879 307.067C332.348 298.618 293.227 307.688 280.788 347.805C278.922 354.161 276.527 361.257 273.973 368.82L273.972 368.822C272.75 372.444 271.491 376.173 270.236 379.979C254.29 426.881 232.614 491.559 232.842 551.968C233.282 623.296 265.528 673.214 328.877 699.844C328.911 699.853 329.042 699.895 329.266 699.967C336.556 702.314 442.299 736.359 489.626 689.086C513.28 665.549 494.064 631.486 469.745 588.377L469.607 588.132L469.027 587.099C444.984 544.23 415.561 491.768 424.557 436.238C418.552 495.094 449.652 550.375 475.305 595.693L475.45 595.951C501.745 642.481 522.604 679.394 497.628 704.265ZM343.038 701.948C373.893 710.216 450.607 725.702 488.577 687.598C511.254 665.005 492.367 631.514 468.379 588.978L468.239 588.731C445.579 548.626 418.276 500.233 421.569 448.465C415.692 497.296 441.628 543.359 463.052 581.065C484.364 618.639 502.708 651.073 481.25 672.6C438.322 715.514 342.278 684.483 336.045 682.469L335.852 682.407C335.787 682.386 335.747 682.373 335.732 682.369C278.508 658.105 249.29 613.102 248.736 548.502C248.412 493.861 268.172 435.429 282.747 392.746C283.133 391.598 283.516 390.459 283.897 389.328C287.041 379.984 289.982 371.245 292.229 363.665C303.071 327.706 338.391 319.307 366.994 326.971L367.894 327.212C401.051 336.521 431.187 366.847 427.798 413.297C437.55 356.61 402.855 319.655 364.357 308.884C333.398 300.106 294.623 308.786 282.876 348.123C281.01 354.478 278.614 361.574 276.061 369.138L276.06 369.14C274.837 372.762 273.578 376.491 272.324 380.297C256.377 427.199 234.537 491.592 234.825 551.775C235.204 623.328 266.297 671.247 329.646 697.877C330.261 698.283 335.156 699.836 343.038 701.948ZM479.629 671.442C445.344 705.705 376.183 691.76 348.256 684.277C342.739 682.799 338.841 681.613 337.014 681.057L337.013 681.056L337.012 681.056C336.453 680.886 336.088 680.775 335.929 680.733C205.358 625.711 254.466 480.276 283.977 393.559C284.364 392.409 284.748 391.267 285.129 390.134L285.131 390.13L285.131 390.129C288.274 380.79 291.214 372.055 293.459 364.477C304.06 329.419 338.524 321.515 366.225 328.938L367.126 329.179C400.893 338.67 431.524 370.471 425.025 419.384C425.68 380.47 399.65 355.199 371.235 347.177L370.334 346.936C344.659 340.056 312.75 347.438 303.324 379.914C302.609 382.066 301.865 384.329 301.09 386.685L301.088 386.692L301.074 386.734L301.074 386.735L301.072 386.74C299.139 392.618 297.016 399.074 294.687 405.842C281.769 444.141 264.149 496.388 264.345 545.202C264.561 602.952 290.692 643.265 342.076 664.999C342.103 665.006 342.205 665.039 342.379 665.096L342.387 665.098L342.389 665.099C348.278 666.999 433.963 694.644 472.364 656.218C491.746 637.031 475.215 607.739 456.211 574.163C438.408 542.766 416.969 504.835 418.568 464.272C419.026 507.662 441.811 548.083 460.836 581.834L461.053 582.219C482.859 620.65 500.05 651.085 479.629 671.442ZM353.534 666.38C378.533 673.078 440.367 685.543 471.028 654.895C489.209 636.593 473.997 609.585 454.498 575.152L453.997 574.261C435.772 541.842 413.851 502.85 416.653 461.048C410.878 500.219 431.797 537.197 448.88 567.395L449.025 567.651C465.886 597.515 480.273 623.095 463.356 640.287C429.479 674.229 354.136 649.959 348.613 648.179L348.428 648.12C348.359 648.098 348.316 648.085 348.299 648.08C302.979 628.936 279.938 593.313 279.608 542.291C279.316 499.421 294.952 453.397 306.365 419.802L306.365 419.801L306.505 419.389C307.651 415.867 308.804 412.473 309.906 409.227C311.445 404.697 312.887 400.454 314.072 396.553C322.593 367.456 350.642 360.971 373.389 367.066L374.064 367.247C399.952 374.602 423.524 398.059 421.449 434.047C429.773 387.845 401.803 357.757 370.527 348.919L369.851 348.738C345.078 342.1 314.475 349.107 305.125 380.396C302.952 387.648 299.983 396.227 296.925 405.062L296.488 406.325C270.126 483.989 226.204 613.675 342.845 663.033C343.009 663.318 347.003 664.63 353.534 666.38ZM462.081 638.738C435.105 665.546 380.823 654.622 358.752 648.708C356.467 648.096 354.526 647.536 353.007 647.098C350.783 646.457 349.463 646.076 349.293 646.174C246.578 602.979 285.233 488.799 308.394 420.387L308.472 420.157C311.441 411.78 314.064 403.793 316.099 397.096C324.544 369.185 351.736 363.195 373.747 369.334C401.364 376.964 426.042 403.739 418.434 444.716C419.947 413.646 399.717 393.399 377.18 387.151L376.504 386.97C356.91 381.72 332.497 387.248 325.063 412.292C323.623 416.942 321.883 422.133 319.99 427.781L319.988 427.785L319.988 427.786L319.961 427.868L319.951 427.895C319.498 429.249 319.035 430.629 318.566 432.034C308.573 461.22 295.233 501.096 295.338 538.54C295.555 582.772 315.734 613.767 354.989 630.32C357.857 631.329 424.5 653.773 454.815 623.515C469.571 608.75 457.169 586.708 442.724 561.035L442.47 560.584C427.824 534.915 409.951 503.385 414.135 470.041C412.389 506.457 431.618 540.566 447.537 568.7C464.562 598.85 477.961 622.717 462.081 638.738ZM363.805 630.751C382.723 635.82 429.902 645.323 453.03 622.071C466.834 608.39 455.024 587.604 440.246 561.677L440.105 561.428C427.153 538.466 411.74 511.144 411.185 481.767C409.674 508.121 423.671 533.053 435.195 553.58L435.195 553.58L435.344 553.846C447.814 575.775 458.47 594.562 445.643 607.298C421.258 631.668 369.271 615.644 361.852 613.357L361.848 613.356L361.84 613.353C361.442 613.231 361.174 613.148 361.048 613.115C284.278 580.716 313.022 495.966 330.22 445.295C331.93 440.351 333.42 435.656 334.711 431.586L334.714 431.579L334.714 431.576C335.037 430.558 335.348 429.579 335.647 428.645C342.341 407.266 362.953 402.409 379.844 406.935L380.295 407.055C398.448 412.119 414.995 428.081 415.319 452.381C420.985 418.04 399.776 395.604 376.411 389.118L375.735 388.937C357.043 383.928 333.876 389.307 326.579 412.939C325.054 417.865 323.148 423.562 321.111 429.65L321.11 429.651L321.094 429.699C320.74 430.757 320.382 431.827 320.021 432.907L319.943 433.138C299.993 492.273 266.689 590.987 355.247 628.458L363.805 630.751ZM444.368 605.749C424.639 625.326 385.013 617.364 369.023 613.079C365.742 612.2 363.386 611.411 362.487 611.109L362.482 611.108L362.37 611.07L362.257 611.033C362.178 611.006 362.126 610.99 362.102 610.983C287.299 579.353 315.515 495.668 332.472 445.899C334.264 440.72 335.813 435.814 337.182 431.482L337.183 431.476L337.183 431.476L337.442 430.658L337.69 429.871L337.82 429.463L337.959 429.024C344.066 408.935 363.821 404.573 379.751 409.082C399.83 414.692 417.731 434.131 412.201 463.781C411.556 444.616 398.55 431.213 383.41 426.96L382.959 426.839C369.221 423.158 352.184 427.283 346.802 444.669C346.131 447.172 345.22 449.886 344.241 452.801L344.241 452.801L344.241 452.803C343.634 454.61 343.002 456.494 342.384 458.452L342.381 458.461C328.333 500.079 304.948 569.358 367.842 595.865C367.856 595.869 367.872 595.874 367.89 595.879C368.008 595.912 368.214 595.976 368.501 596.064C374.58 597.94 417.185 611.082 437.207 591.037C447.733 580.581 438.89 564.935 428.729 547.005C419.17 530.162 407.536 509.473 408.977 487.727C409.613 512.5 422.648 535.551 433.631 554.835L433.853 555.232C446.157 577.196 455.803 594.416 444.368 605.749ZM435.481 589.368C419.662 605.164 387.364 598.682 374.301 595.182L374.3 595.182C370.922 594.277 368.896 593.734 368.731 593.448C307.799 567.707 330.83 499.772 344.637 459.056C346.25 453.936 347.742 449.267 349.054 445.273C353.849 429.178 369.519 425.652 382.356 429.092L382.806 429.212C399.862 434.024 415.071 451.134 408.296 477.32C401.603 503.182 415.059 527.267 426.034 546.913L426.034 546.913C426.267 547.33 426.499 547.746 426.73 548.159L427.32 549.22C436.98 566.584 444.56 580.207 435.481 589.368Z" fill="url(#paint0_linear_9_1079)"/>
<defs>
<linearGradient id="paint0_linear_9_1079" x1="722.562" y1="604.41" x2="20.7014" y2="416.347" gradientUnits="userSpaceOnUse">
<stop stop-color="#04DA00" stop-opacity="0"/>
<stop offset="0.3125" stop-color="#FF0469"/>
<stop offset="0.703125" stop-color="#109BFF"/>
<stop offset="1" stop-color="#FFD110" stop-opacity="0"/>
</linearGradient>
</defs>
</svg>
