<svg width="1373" height="96" viewBox="0 0 1373 96" fill="none" xmlns="http://www.w3.org/2000/svg">
<path d="M11.9033 90.5088L10.9609 90.1745L10.9607 90.1749L11.9033 90.5088ZM19.9648 67.7842V66.7842H19.2585L19.0224 67.4498L19.9648 67.7842ZM56.21 67.7842L57.1516 67.4475L56.9144 66.7842H56.21V67.7842ZM64.335 90.5088L65.2776 90.1749L65.2766 90.1721L64.335 90.5088ZM74.9355 86.7002L75.8754 86.3584L75.8733 86.353L74.9355 86.7002ZM45.4189 6.97363L46.3567 6.62644L46.3559 6.62425L45.4189 6.97363ZM30.7559 7.03711L29.8189 6.68773L29.8179 6.69033L30.7559 7.03711ZM1.30273 86.7002L0.364773 86.3534L0.362942 86.3585L1.30273 86.7002ZM23.2656 58.0723L22.3221 57.741L21.8547 59.0723H23.2656V58.0723ZM37.9287 16.3047V15.3047H37.2199L36.9852 15.9734L37.9287 16.3047ZM38.3096 16.3047L39.2531 15.9734L39.0183 15.3047H38.3096V16.3047ZM52.9727 58.0723V59.0723H54.3836L53.9162 57.741L52.9727 58.0723ZM6.31738 95.8887C7.90804 95.8887 9.27203 95.5139 10.3965 94.6262C11.5042 93.7517 12.2719 92.4634 12.8459 90.8426L10.9607 90.1749C10.4556 91.6011 9.85856 92.5027 9.15721 93.0564C8.4726 93.5969 7.58318 93.8887 6.31738 93.8887V95.8887ZM12.8458 90.8431L20.9073 68.1185L19.0224 67.4498L10.9609 90.1745L12.8458 90.8431ZM19.9648 68.7842H56.21V66.7842H19.9648V68.7842ZM55.2683 68.1208L63.3933 90.8455L65.2766 90.1721L57.1516 67.4475L55.2683 68.1208ZM63.3923 90.8426C63.9663 92.4634 64.7341 93.7517 65.8418 94.6262C66.9663 95.5139 68.3302 95.8887 69.9209 95.8887V93.8887C68.6551 93.8887 67.7657 93.5969 67.0811 93.0564C66.3797 92.5027 65.7827 91.6011 65.2776 90.1749L63.3923 90.8426ZM69.9209 95.8887C73.6444 95.8887 76.6338 93.4675 76.6338 89.874H74.6338C74.6338 92.1204 72.799 93.8887 69.9209 93.8887V95.8887ZM76.6338 89.874C76.6338 88.8866 76.4036 87.8113 75.8753 86.3585L73.9958 87.0419C74.4831 88.3821 74.6338 89.211 74.6338 89.874H76.6338ZM75.8733 86.353L46.3567 6.62644L44.4811 7.32083L73.9977 87.0474L75.8733 86.353ZM46.3559 6.62425C45.6147 4.63629 44.601 3.08856 43.2223 2.04294C41.8325 0.988895 40.1634 0.514648 38.2461 0.514648V2.51465C39.82 2.51465 41.0391 2.89734 42.0138 3.6365C42.9995 4.3841 43.8268 5.56586 44.482 7.32302L46.3559 6.62425ZM38.2461 0.514648C36.2095 0.514648 34.4632 1.00087 33.0244 2.06836C31.594 3.12963 30.5617 4.69561 29.8189 6.68773L31.6928 7.38649C32.3465 5.63349 33.1868 4.43824 34.2161 3.67456C35.237 2.9171 36.5376 2.51465 38.2461 2.51465V0.514648ZM29.8179 6.69033L0.364788 86.3534L2.24068 87.047L31.6938 7.38389L29.8179 6.69033ZM0.362942 86.3585C-0.165363 87.8113 -0.395508 88.8866 -0.395508 89.874H1.60449C1.60449 89.211 1.75521 88.3821 2.24253 87.0419L0.362942 86.3585ZM-0.395508 89.874C-0.395508 93.4675 2.59392 95.8887 6.31738 95.8887V93.8887C3.43928 93.8887 1.60449 92.1204 1.60449 89.874H-0.395508ZM24.2092 58.4035L38.8723 16.6359L36.9852 15.9734L22.3221 57.741L24.2092 58.4035ZM37.9287 17.3047H38.3096V15.3047H37.9287V17.3047ZM37.366 16.6359L52.0291 58.4035L53.9162 57.741L39.2531 15.9734L37.366 16.6359ZM52.9727 57.0723H23.2656V59.0723H52.9727V57.0723ZM137.904 79.4004L138.849 79.7284L138.854 79.7136L138.859 79.6987L137.904 79.4004ZM128.446 75.6553L129.326 76.1304L129.329 76.1249L128.446 75.6553ZM128.383 46.3291L129.265 45.8585L129.265 45.8581L128.383 46.3291ZM137.968 43.0283L137.004 43.296L137.008 43.3092L137.012 43.3224L137.968 43.0283ZM112.26 96.1426C124.573 96.1426 135.503 89.3661 138.849 79.7284L136.96 79.0724C133.958 87.7159 123.941 94.1426 112.26 94.1426V96.1426ZM138.859 79.6987C139.192 78.6334 139.412 77.5733 139.412 76.6074H137.412C137.412 77.2919 137.252 78.1362 136.95 79.1021L138.859 79.6987ZM139.412 76.6074C139.412 74.9532 138.857 73.4839 137.817 72.4237C136.774 71.3616 135.316 70.7832 133.651 70.7832V72.7832C134.843 72.7832 135.765 73.1886 136.389 73.8246C137.015 74.4624 137.412 75.4052 137.412 76.6074H139.412ZM133.651 70.7832C132.312 70.7832 131.172 71.0334 130.143 71.7976C129.157 72.5299 128.374 73.6622 127.563 75.1857L129.329 76.1249C130.106 74.6649 130.719 73.8612 131.336 73.4033C131.909 72.9774 132.579 72.7832 133.651 72.7832V70.7832ZM127.566 75.1801C125.91 78.2481 123.953 80.5423 121.511 82.0766C119.074 83.608 116.078 84.4307 112.26 84.4307V86.4307C116.376 86.4307 119.759 85.5394 122.575 83.77C125.386 82.0036 127.555 79.4101 129.326 76.1304L127.566 75.1801ZM112.26 84.4307C106.875 84.4307 102.356 82.2458 99.1615 78.2738C95.9518 74.2824 94.0264 68.4136 94.0264 60.9922H92.0264C92.0264 68.7416 94.0365 75.0921 97.6029 79.5272C101.185 83.9817 106.283 86.4307 112.26 86.4307V84.4307ZM94.0264 60.9922C94.0264 53.7625 95.9195 47.8896 99.1187 43.8473C102.302 39.825 106.822 37.5537 112.26 37.5537V35.5537C106.208 35.5537 101.111 38.1066 97.5505 42.6061C94.0053 47.0855 92.0264 53.4318 92.0264 60.9922H94.0264ZM112.26 37.5537C115.922 37.5537 118.89 38.3303 121.344 39.8412C123.801 41.3536 125.817 43.6471 127.501 46.8001L129.265 45.8581C127.457 42.473 125.221 39.8789 122.393 38.1381C119.563 36.3958 116.214 35.5537 112.26 35.5537V37.5537ZM127.5 46.7997C128.286 48.2727 129.085 49.3968 130.089 50.14C131.128 50.9095 132.29 51.2012 133.651 51.2012V49.2012C132.601 49.2012 131.89 48.985 131.279 48.5326C130.632 48.0539 130.003 47.242 129.265 45.8585L127.5 46.7997ZM133.651 51.2012C135.308 51.2012 136.756 50.6436 137.788 49.5809C138.818 48.5212 139.349 47.0488 139.349 45.377H137.349C137.349 46.625 136.959 47.5647 136.354 48.1871C135.752 48.8066 134.851 49.2012 133.651 49.2012V51.2012ZM139.349 45.377C139.349 44.5667 139.203 43.6422 138.924 42.7342L137.012 43.3224C137.24 44.0648 137.349 44.7907 137.349 45.377H139.349ZM138.931 42.7607C136.236 33.0573 124.872 25.8418 112.133 25.8418V27.8418C124.276 27.8418 134.622 34.7181 137.004 43.296L138.931 42.7607ZM112.133 25.8418C102.731 25.8418 94.8641 29.3267 89.3584 35.533C83.8628 41.7279 80.791 50.5509 80.791 61.1191H82.791C82.791 50.9306 85.7495 42.6149 90.8545 36.8603C95.9494 31.1171 103.254 27.8418 112.133 27.8418V25.8418ZM80.791 61.1191C80.791 71.7527 83.8957 80.516 89.4283 86.6331C94.9695 92.7597 102.867 96.1426 112.26 96.1426V94.1426C103.371 94.1426 96.0345 90.9556 90.9116 85.2915C85.7801 79.6178 82.791 71.3694 82.791 61.1191H80.791ZM173.197 85.0498L173.267 84.0523L173.264 84.052L173.197 85.0498ZM172.245 84.9863L172.176 85.984L172.179 85.9841L172.245 84.9863ZM164.755 37.0615V36.0615H163.755V37.0615H164.755ZM164.755 27.9844H163.755V28.9844H164.755V27.9844ZM153.71 27.9844V28.9844H154.71V27.9844H153.71ZM153.71 37.0615H154.71V36.0615H153.71V37.0615ZM152.71 78.7656C152.71 84.1914 154.084 88.4294 157.008 91.3016C159.929 94.1704 164.226 95.5078 169.706 95.5078V93.5078C164.522 93.5078 160.821 92.2426 158.41 89.8747C156.002 87.51 154.71 83.877 154.71 78.7656H152.71ZM169.706 95.5078H170.404V93.5078H169.706V95.5078ZM170.404 95.5078C173.531 95.5078 175.808 95.0661 177.314 94.0201C178.917 92.9076 179.466 91.2529 179.466 89.3662H177.466C177.466 90.8438 177.063 91.7598 176.174 92.3772C175.189 93.0608 173.435 93.5078 170.404 93.5078V95.5078ZM179.466 89.3662C179.466 87.8341 178.968 86.5101 177.829 85.5596C176.734 84.6455 175.174 84.1861 173.267 84.0523L173.127 86.0473C174.838 86.1674 175.913 86.5649 176.547 87.0949C177.139 87.5886 177.466 88.2958 177.466 89.3662H179.466ZM173.264 84.052L172.312 83.9885L172.179 85.9841L173.131 86.0476L173.264 84.052ZM172.314 83.9887C169.689 83.8077 168.132 83.0987 167.196 81.9799C166.239 80.8365 165.755 79.0624 165.755 76.3535H163.755C163.755 79.2306 164.255 81.5824 165.662 83.2637C167.09 84.9697 169.279 85.7841 172.176 85.984L172.314 83.9887ZM165.755 76.3535V37.0615H163.755V76.3535H165.755ZM164.755 38.0615H173.261V36.0615H164.755V38.0615ZM173.261 38.0615C175.012 38.0615 176.524 37.6055 177.605 36.6056C178.699 35.5948 179.212 34.1579 179.212 32.4912H177.212C177.212 33.7444 176.836 34.5927 176.248 35.1371C175.647 35.6923 174.684 36.0615 173.261 36.0615V38.0615ZM179.212 32.4912C179.212 30.85 178.695 29.4293 177.602 28.4289C176.521 27.4403 175.012 26.9844 173.261 26.9844V28.9844C174.684 28.9844 175.65 29.3536 176.251 29.9044C176.84 30.4433 177.212 31.276 177.212 32.4912H179.212ZM173.261 26.9844H164.755V28.9844H173.261V26.9844ZM165.755 27.9844V16.6855H163.755V27.9844H165.755ZM165.755 16.6855C165.755 14.7199 165.109 12.9886 163.937 11.7402C162.76 10.4875 161.11 9.78223 159.232 9.78223V11.7822C160.592 11.7822 161.703 12.283 162.479 13.1092C163.258 13.9397 163.755 15.16 163.755 16.6855H165.755ZM159.232 9.78223C157.354 9.78223 155.704 10.4875 154.528 11.7402C153.356 12.9886 152.71 14.7199 152.71 16.6855H154.71C154.71 15.16 155.206 13.9397 155.986 13.1092C156.762 12.283 157.873 11.7822 159.232 11.7822V9.78223ZM152.71 16.6855V27.9844H154.71V16.6855H152.71ZM153.71 26.9844H148.188V28.9844H153.71V26.9844ZM148.188 26.9844C146.437 26.9844 144.927 27.4403 143.847 28.4289C142.753 29.4293 142.236 30.85 142.236 32.4912H144.236C144.236 31.276 144.608 30.4433 145.197 29.9044C145.799 29.3536 146.764 28.9844 148.188 28.9844V26.9844ZM142.236 32.4912C142.236 34.1579 142.75 35.5948 143.843 36.6056C144.924 37.6055 146.437 38.0615 148.188 38.0615V36.0615C146.764 36.0615 145.801 35.6923 145.201 35.1371C144.612 34.5927 144.236 33.7444 144.236 32.4912H142.236ZM148.188 38.0615H153.71V36.0615H148.188V38.0615ZM152.71 37.0615V78.7656H154.71V37.0615H152.71ZM195.478 17.876C199.832 17.876 203.396 14.3239 203.396 10.0205H201.396C201.396 13.2074 198.74 15.876 195.478 15.876V17.876ZM203.396 10.0205C203.396 5.64766 199.826 2.16504 195.478 2.16504V4.16504C198.746 4.16504 201.396 6.77617 201.396 10.0205H203.396ZM195.478 2.16504C191.186 2.16504 187.622 5.65361 187.622 10.0205H189.622C189.622 6.77021 192.279 4.16504 195.478 4.16504V2.16504ZM187.622 10.0205C187.622 14.3179 191.18 17.876 195.478 17.876V15.876C192.285 15.876 189.622 13.2133 189.622 10.0205H187.622ZM195.478 96.1426C197.355 96.1426 199.006 95.4373 200.182 94.1846C201.354 92.9362 202 91.2049 202 89.2393H200C200 90.7648 199.504 91.9851 198.724 92.8156C197.948 93.6418 196.837 94.1426 195.478 94.1426V96.1426ZM202 89.2393V32.7451H200V89.2393H202ZM202 32.7451C202 30.7794 201.354 29.0481 200.182 27.7998C199.006 26.5471 197.355 25.8418 195.478 25.8418V27.8418C196.837 27.8418 197.948 28.3426 198.724 29.1687C199.504 29.9992 200 31.2196 200 32.7451H202ZM195.478 25.8418C193.6 25.8418 191.95 26.5471 190.773 27.7998C189.601 29.0481 188.955 30.7794 188.955 32.7451H190.955C190.955 31.2196 191.452 29.9992 192.231 29.1687C193.007 28.3426 194.118 27.8418 195.478 27.8418V25.8418ZM188.955 32.7451V89.2393H190.955V32.7451H188.955ZM188.955 89.2393C188.955 91.2049 189.601 92.9362 190.773 94.1846C191.95 95.4373 193.6 96.1426 195.478 96.1426V94.1426C194.118 94.1426 193.007 93.6418 192.231 92.8156C191.452 91.9851 190.955 90.7648 190.955 89.2393H188.955ZM247.465 89.5566L248.399 89.9146L248.399 89.9138L247.465 89.5566ZM268.412 34.7764L267.484 34.405L267.481 34.4121L267.478 34.4192L268.412 34.7764ZM258.446 31.0312L257.504 30.6962L257.504 30.6972L258.446 31.0312ZM240.292 82.2568V83.2568H240.999L241.235 82.5909L240.292 82.2568ZM240.038 82.2568L239.095 82.5898L239.331 83.2568H240.038V82.2568ZM221.947 31.0312L222.89 30.6982L222.889 30.6962L221.947 31.0312ZM211.854 34.7764L212.788 34.4183L212.786 34.4116L212.783 34.405L211.854 34.7764ZM232.865 89.5566L231.931 89.9148L231.936 89.9255L232.865 89.5566ZM240.102 96.1426C242.055 96.1426 243.754 95.6504 245.173 94.5747C246.58 93.508 247.625 91.9325 248.399 89.9146L246.531 89.1987C245.845 90.9894 244.986 92.2069 243.965 92.981C242.955 93.7461 241.703 94.1426 240.102 94.1426V96.1426ZM248.399 89.9138L269.346 35.1335L267.478 34.4192L246.531 89.1995L248.399 89.9138ZM269.341 35.1478C269.765 34.0867 269.983 33.0088 269.983 31.9199H267.983C267.983 32.7353 267.821 33.5618 267.484 34.405L269.341 35.1478ZM269.983 31.9199C269.983 30.15 269.35 28.605 268.174 27.5072C267.004 26.4153 265.38 25.8418 263.524 25.8418V27.8418C264.97 27.8418 266.075 28.2839 266.809 28.9693C267.538 29.6489 267.983 30.643 267.983 31.9199H269.983ZM263.524 25.8418C262.12 25.8418 260.871 26.2357 259.827 27.0924C258.801 27.9348 258.05 29.1613 257.504 30.6962L259.388 31.3663C259.858 30.0448 260.44 29.1765 261.096 28.6383C261.734 28.1144 262.517 27.8418 263.524 27.8418V25.8418ZM257.504 30.6972L239.349 81.9228L241.235 82.5909L259.389 31.3653L257.504 30.6972ZM240.292 81.2568H240.038V83.2568H240.292V81.2568ZM240.981 81.9238L222.89 30.6982L221.004 31.3643L239.095 82.5898L240.981 81.9238ZM222.889 30.6962C222.344 29.1613 221.592 27.9328 220.555 27.0895C219.501 26.2324 218.236 25.8418 216.806 25.8418V27.8418C217.851 27.8418 218.649 28.1177 219.293 28.6412C219.954 29.1785 220.535 30.0448 221.005 31.3663L222.889 30.6962ZM216.806 25.8418C214.951 25.8418 213.314 26.4147 212.13 27.5016C210.939 28.5957 210.283 30.141 210.283 31.9199H212.283C212.283 30.652 212.739 29.6582 213.483 28.9749C214.235 28.2845 215.359 27.8418 216.806 27.8418V25.8418ZM210.283 31.9199C210.283 33.0088 210.502 34.0867 210.926 35.1478L212.783 34.405C212.446 33.5618 212.283 32.7353 212.283 31.9199H210.283ZM210.921 35.1345L231.932 89.9147L233.799 89.1985L212.788 34.4183L210.921 35.1345ZM231.936 89.9255C232.761 92.0048 233.75 93.5881 235.11 94.6401C236.491 95.7088 238.139 96.1426 240.102 96.1426V94.1426C238.446 94.1426 237.27 93.7829 236.334 93.0584C235.376 92.3172 234.557 91.1075 233.795 89.1878L231.936 89.9255ZM330.111 81.1143L331.015 81.5434L331.024 81.5231L331.033 81.5023L330.111 81.1143ZM321.923 75.2744L321.111 74.6901L321.105 74.6992L321.098 74.7085L321.923 75.2744ZM284.979 63.9756V62.9756H283.979V63.9756H284.979ZM285.043 55.3428L284.045 55.2814L283.98 56.3428H285.043V55.3428ZM320.907 55.3428V56.3428H321.93L321.907 55.3206L320.907 55.3428ZM304.53 96.1426C316.874 96.1426 326.556 90.9263 331.015 81.5434L329.208 80.6851C325.161 89.2026 316.307 94.1426 304.53 94.1426V96.1426ZM331.033 81.5023C331.559 80.2532 331.937 78.9644 331.937 77.877H329.937C329.937 78.5668 329.679 79.5632 329.19 80.7262L331.033 81.5023ZM331.937 77.877C331.937 76.1858 331.362 74.7099 330.288 73.6562C329.217 72.6045 327.729 72.0527 326.049 72.0527V74.0527C327.288 74.0527 328.245 74.4531 328.887 75.0836C329.527 75.712 329.937 76.6482 329.937 77.877H331.937ZM326.049 72.0527C325.063 72.0527 324.15 72.2367 323.304 72.6847C322.461 73.1308 321.749 73.8049 321.111 74.6901L322.734 75.8587C323.24 75.157 323.733 74.7203 324.24 74.4523C324.742 74.1862 325.321 74.0527 326.049 74.0527V72.0527ZM321.098 74.7085C318.573 78.387 316.183 80.8268 313.528 82.3587C310.886 83.8832 307.897 84.5576 304.086 84.5576V86.5576C308.146 86.5576 311.504 85.8355 314.528 84.091C317.538 82.3539 320.131 79.652 322.747 75.8404L321.098 74.7085ZM304.086 84.5576C298.429 84.5576 293.94 82.5892 290.854 79.1026C287.755 75.6016 285.979 70.4648 285.979 63.9756H283.979C283.979 70.8165 285.854 76.4707 289.356 80.4282C292.872 84.4001 297.936 86.5576 304.086 86.5576V84.5576ZM284.979 64.9756H326.239V62.9756H284.979V64.9756ZM326.239 64.9756C328.36 64.9756 330.167 64.2984 331.439 62.9583C332.706 61.6247 333.333 59.751 333.333 57.5645H331.333C331.333 59.3769 330.818 60.7087 329.989 61.581C329.167 62.4468 327.927 62.9756 326.239 62.9756V64.9756ZM333.333 57.5645C333.333 48.2986 330.29 40.363 325.017 34.7353C319.739 29.103 312.281 25.8418 303.578 25.8418V27.8418C311.76 27.8418 318.679 30.8966 323.558 36.1028C328.44 41.3137 331.333 48.7395 331.333 57.5645H333.333ZM303.578 25.8418C294.204 25.8418 286.429 29.3458 281.011 35.5804C275.605 41.8007 272.617 50.6535 272.617 61.2461H274.617C274.617 51.0183 277.501 42.669 282.521 36.8923C287.529 31.1298 294.735 27.8418 303.578 27.8418V25.8418ZM272.617 61.2461C272.617 72.081 275.52 80.823 281.027 86.8659C286.545 92.9215 294.564 96.1426 304.53 96.1426V94.1426C295.01 94.1426 287.572 91.0795 282.505 85.5189C277.427 79.9456 274.617 71.7393 274.617 61.2461H272.617ZM286.041 55.4041C286.378 49.9239 288.316 45.4327 291.338 42.3206C294.355 39.2148 298.504 37.4268 303.388 37.4268V35.4268C297.989 35.4268 293.314 37.4156 289.904 40.9272C286.499 44.4326 284.406 49.3993 284.045 55.2814L286.041 55.4041ZM303.388 37.4268C308.24 37.4268 312.285 39.1984 315.152 42.2812C318.028 45.3718 319.785 49.8515 319.907 55.365L321.907 55.3206C321.776 49.4083 319.883 44.43 316.617 40.919C313.343 37.4003 308.755 35.4268 303.388 35.4268V37.4268ZM320.907 54.3428H285.043V56.3428H320.907V54.3428ZM383.178 22.335V21.335H382.178V22.335H383.178ZM383.749 22.335L384.568 21.7614L384.27 21.335H383.749V22.335ZM431.928 91.1436L432.749 90.5725L432.747 90.57L431.928 91.1436ZM433.705 74.3223V75.3223H434.705V74.3223H433.705ZM433.134 74.3223L432.314 74.8943L432.612 75.3223H433.134V74.3223ZM385.019 5.32324L384.198 5.89431L384.198 5.89524L385.019 5.32324ZM377.528 95.8887C379.499 95.8887 381.19 95.238 382.386 93.9839C383.576 92.7354 384.178 90.992 384.178 88.9854H382.178C382.178 90.5969 381.7 91.8051 380.939 92.6037C380.182 93.3968 379.049 93.8887 377.528 93.8887V95.8887ZM384.178 88.9854V22.335H382.178V88.9854H384.178ZM383.178 23.335H383.749V21.335H383.178V23.335ZM382.93 22.9085L431.109 91.7171L432.747 90.57L384.568 21.7614L382.93 22.9085ZM431.107 91.7146C432.151 93.2161 433.128 94.299 434.331 94.981C435.55 95.6725 436.889 95.8887 438.529 95.8887V93.8887C437.059 93.8887 436.113 93.6923 435.317 93.2412C434.505 92.7806 433.735 91.9909 432.749 90.5725L431.107 91.7146ZM438.529 95.8887C440.751 95.8887 442.643 95.2436 443.984 93.9502C445.33 92.6525 446.004 90.8153 446.004 88.668H444.004C444.004 90.3928 443.472 91.6659 442.596 92.5105C441.716 93.3594 440.37 93.8887 438.529 93.8887V95.8887ZM446.004 88.668V7.41797H444.004V88.668H446.004ZM446.004 7.41797C446.004 5.4113 445.403 3.66792 444.212 2.41942C443.016 1.16535 441.325 0.514648 439.354 0.514648V2.51465C440.875 2.51465 442.009 3.00652 442.765 3.79957C443.526 4.5982 444.004 5.80647 444.004 7.41797H446.004ZM439.354 0.514648C437.384 0.514648 435.693 1.16535 434.497 2.41942C433.306 3.66792 432.705 5.4113 432.705 7.41797H434.705C434.705 5.80647 435.183 4.5982 435.944 3.79957C436.7 3.00652 437.834 2.51465 439.354 2.51465V0.514648ZM432.705 7.41797V74.3223H434.705V7.41797H432.705ZM433.705 73.3223H433.134V75.3223H433.705V73.3223ZM433.954 73.7503L385.839 4.75125L384.198 5.89524L432.314 74.8943L433.954 73.7503ZM385.839 4.75218C384.793 3.24826 383.803 2.15449 382.599 1.45824C381.376 0.751004 380.038 0.514648 378.417 0.514648V2.51465C379.842 2.51465 380.79 2.72263 381.598 3.18971C382.425 3.66778 383.213 4.47831 384.198 5.89431L385.839 4.75218ZM378.417 0.514648C376.217 0.514648 374.312 1.26484 372.958 2.64775C371.605 4.0287 370.879 5.95998 370.879 8.17969H372.879C372.879 6.40037 373.454 4.99913 374.386 4.04731C375.317 3.09746 376.682 2.51465 378.417 2.51465V0.514648ZM370.879 8.17969V88.9854H372.879V8.17969H370.879ZM370.879 88.9854C370.879 90.992 371.48 92.7354 372.671 93.9839C373.866 95.238 375.558 95.8887 377.528 95.8887V93.8887C376.008 93.8887 374.874 93.3968 374.118 92.6037C373.357 91.8051 372.879 90.5969 372.879 88.9854H370.879ZM488.422 96.1426C497.783 96.1426 505.696 92.7593 511.261 86.6178C516.817 80.4854 519.954 71.6904 519.954 60.9922H517.954C517.954 71.3047 514.934 79.5849 509.779 85.275C504.631 90.956 497.278 94.1426 488.422 94.1426V96.1426ZM519.954 60.9922C519.954 50.2629 516.817 41.4673 511.26 35.3422C505.695 29.2082 497.782 25.8418 488.422 25.8418V27.8418C497.279 27.8418 504.633 31.0135 509.779 36.6861C514.934 42.3676 517.954 50.6473 517.954 60.9922H519.954ZM488.422 25.8418C479.031 25.8418 471.102 29.2075 465.528 35.3417C459.963 41.467 456.826 50.2629 456.826 60.9922H458.826C458.826 50.6473 461.847 42.368 467.009 36.6866C472.163 31.0142 479.531 27.8418 488.422 27.8418V25.8418ZM456.826 60.9922C456.826 71.6904 459.963 80.4857 465.528 86.6184C471.101 92.76 479.03 96.1426 488.422 96.1426V94.1426C479.533 94.1426 472.164 90.9553 467.009 85.2744C461.846 79.5846 458.826 71.3047 458.826 60.9922H456.826ZM488.422 84.4307C482.858 84.4307 478.313 82.3256 475.138 78.4132C471.945 74.4772 470.062 68.615 470.062 60.9922H468.062C468.062 68.9211 470.019 75.2782 473.585 79.6734C477.171 84.0924 482.306 86.4307 488.422 86.4307V84.4307ZM470.062 60.9922C470.062 53.3694 471.945 47.5072 475.138 43.5711C478.313 39.6588 482.858 37.5537 488.422 37.5537V35.5537C482.306 35.5537 477.171 37.892 473.585 42.3109C470.019 46.7062 468.062 53.0633 468.062 60.9922H470.062ZM488.422 37.5537C493.986 37.5537 498.514 39.6583 501.672 43.5693C504.851 47.505 506.719 53.3675 506.719 60.9922H508.719C508.719 53.0651 506.778 46.7084 503.228 42.3127C499.658 37.8924 494.538 35.5537 488.422 35.5537V37.5537ZM506.719 60.9922C506.719 68.6168 504.851 74.4794 501.672 78.415C498.514 82.326 493.986 84.4307 488.422 84.4307V86.4307C494.538 86.4307 499.658 84.0919 503.228 79.6716C506.778 75.276 508.719 68.9193 508.719 60.9922H506.719ZM536.22 17.876C540.575 17.876 544.139 14.3239 544.139 10.0205H542.139C542.139 13.2074 539.482 15.876 536.22 15.876V17.876ZM544.139 10.0205C544.139 5.64766 540.569 2.16504 536.22 2.16504V4.16504C539.488 4.16504 542.139 6.77617 542.139 10.0205H544.139ZM536.22 2.16504C531.928 2.16504 528.364 5.65361 528.364 10.0205H530.364C530.364 6.77021 533.021 4.16504 536.22 4.16504V2.16504ZM528.364 10.0205C528.364 14.3179 531.922 17.876 536.22 17.876V15.876C533.027 15.876 530.364 13.2133 530.364 10.0205H528.364ZM536.22 96.1426C538.098 96.1426 539.748 95.4373 540.924 94.1846C542.096 92.9362 542.742 91.2049 542.742 89.2393H540.742C540.742 90.7648 540.246 91.9851 539.466 92.8156C538.69 93.6418 537.579 94.1426 536.22 94.1426V96.1426ZM542.742 89.2393V32.7451H540.742V89.2393H542.742ZM542.742 32.7451C542.742 30.7794 542.096 29.0481 540.924 27.7998C539.748 26.5471 538.098 25.8418 536.22 25.8418V27.8418C537.579 27.8418 538.69 28.3426 539.466 29.1687C540.246 29.9992 540.742 31.2196 540.742 32.7451H542.742ZM536.22 25.8418C534.342 25.8418 532.692 26.5471 531.516 27.7998C530.343 29.0481 529.697 30.7794 529.697 32.7451H531.697C531.697 31.2196 532.194 29.9992 532.974 29.1687C533.749 28.3426 534.86 27.8418 536.22 27.8418V25.8418ZM529.697 32.7451V89.2393H531.697V32.7451H529.697ZM529.697 89.2393C529.697 91.2049 530.343 92.9362 531.516 94.1846C532.692 95.4373 534.342 96.1426 536.22 96.1426V94.1426C534.86 94.1426 533.749 93.6418 532.974 92.8156C532.194 91.9851 531.697 90.7648 531.697 89.2393H529.697ZM587.001 57.501L586.763 58.4722L586.764 58.4724L587.001 57.501ZM577.162 55.0889L576.924 56.06L576.924 56.0601L577.162 55.0889ZM593.666 43.8535L592.778 44.313L592.782 44.3203L593.666 43.8535ZM602.68 40.8701L603.66 40.674L603.659 40.6665L603.657 40.659L602.68 40.8701ZM574.369 64.6104L574.613 63.6406L574.611 63.6399L574.369 64.6104ZM584.462 67.1494L584.218 68.1192L584.221 68.12L584.462 67.1494ZM564.784 77.75L563.91 78.2357L563.916 78.2461L564.784 77.75ZM555.453 81.6221L556.387 81.2631L556.382 81.2507L555.453 81.6221ZM579.574 96.1426C587.571 96.1426 594.369 94.12 599.194 90.4993C604.04 86.8621 606.854 81.6374 606.854 75.4014H604.854C604.854 80.972 602.366 85.6179 597.993 88.8996C593.598 92.1979 587.256 94.1426 579.574 94.1426V96.1426ZM606.854 75.4014C606.854 70.3506 605.522 66.4235 602.281 63.3457C599.096 60.3207 594.172 58.223 587.238 56.5295L586.764 58.4724C593.604 60.1432 598.107 62.1397 600.904 64.7959C603.646 67.3993 604.854 70.7402 604.854 75.4014H606.854ZM587.239 56.5297L577.4 54.1176L576.924 56.0601L586.763 58.4722L587.239 56.5297ZM577.401 54.1177C573.862 53.2485 571.339 52.0631 569.716 50.6266C568.127 49.2209 567.371 47.5533 567.371 45.5674H565.371C565.371 48.1517 566.392 50.3563 568.39 52.1244C570.353 53.8617 573.226 55.1519 576.924 56.06L577.401 54.1177ZM567.371 45.5674C567.371 43.1056 568.562 40.9799 570.708 39.4365C572.872 37.8803 576.018 36.9189 579.828 36.9189V34.9189C575.704 34.9189 572.121 35.9571 569.54 37.8127C566.942 39.6812 565.371 42.3797 565.371 45.5674H567.371ZM579.828 36.9189C583.075 36.9189 585.635 37.501 587.703 38.6834C589.763 39.8615 591.418 41.6842 592.778 44.3129L594.554 43.3941C593.057 40.5004 591.158 38.3557 588.696 36.9473C586.24 35.5429 583.309 34.9189 579.828 34.9189V36.9189ZM592.782 44.3203C593.447 45.5811 594.247 46.4906 595.255 47.0693C596.259 47.6457 597.37 47.8369 598.554 47.8369V45.8369C597.58 45.8369 596.85 45.679 596.251 45.335C595.656 44.9933 595.091 44.4111 594.55 43.3868L592.782 44.3203ZM598.554 47.8369C600.106 47.8369 601.458 47.3333 602.422 46.358C603.386 45.3844 603.87 44.0355 603.87 42.5205H601.87C601.87 43.6081 601.529 44.4173 601.001 44.9513C600.474 45.4836 599.668 45.8369 598.554 45.8369V47.8369ZM603.87 42.5205C603.87 41.9245 603.795 41.3469 603.66 40.674L601.699 41.0662C601.818 41.6629 601.87 42.1009 601.87 42.5205H603.87ZM603.657 40.659C602.729 36.3604 599.676 32.651 595.533 30.035C591.383 27.4144 586.071 25.8418 580.463 25.8418V27.8418C585.709 27.8418 590.649 29.316 594.465 31.726C598.289 34.1405 600.917 37.4453 601.702 41.0812L603.657 40.659ZM580.463 25.8418C572.839 25.8418 566.356 27.8363 561.753 31.3903C557.13 34.9595 554.453 40.0712 554.453 46.1387H556.453C556.453 40.7169 558.822 36.1801 562.975 32.9733C567.148 29.7511 573.169 27.8418 580.463 27.8418V25.8418ZM554.453 46.1387C554.453 51.0214 556.087 55.1103 559.428 58.3749C562.738 61.6096 567.657 63.9712 574.128 65.5808L574.611 63.6399C568.322 62.0757 563.784 59.8352 560.826 56.9445C557.898 54.0836 556.453 50.5235 556.453 46.1387H554.453ZM574.125 65.5801L584.218 68.1192L584.706 66.1796L574.613 63.6406L574.125 65.5801ZM584.221 68.12C587.89 69.0295 590.231 70.0761 591.654 71.3657C593.015 72.5995 593.618 74.1324 593.618 76.29H595.618C595.618 73.6869 594.857 71.5699 592.997 69.8838C591.198 68.2535 588.46 67.1102 584.703 66.1788L584.221 68.12ZM593.618 76.29C593.618 79.0123 592.375 81.1731 590.144 82.6917C587.877 84.2342 584.556 85.1289 580.463 85.1289V87.1289C584.813 87.1289 588.569 86.1828 591.269 84.3452C594.004 82.4837 595.618 79.725 595.618 76.29H593.618ZM580.463 85.1289C576.337 85.1289 573.432 84.4916 571.184 83.233C568.945 81.9795 567.25 80.0492 565.652 77.2539L563.916 78.2461C565.619 81.2272 567.542 83.4863 570.207 84.9781C572.862 86.4649 576.146 87.1289 580.463 87.1289V85.1289ZM565.658 77.2644C564.97 76.0257 564.159 75.0641 563.192 74.4132C562.214 73.7546 561.128 73.4492 559.96 73.4492V75.4492C560.76 75.4492 561.451 75.6517 562.075 76.0722C562.711 76.5003 563.329 77.1892 563.91 78.2356L565.658 77.2644ZM559.96 73.4492C558.346 73.4492 556.842 73.9159 555.726 74.8839C554.593 75.8669 553.945 77.294 553.945 79.0195H555.945C555.945 77.8251 556.377 76.9671 557.037 76.3949C557.714 75.8077 558.717 75.4492 559.96 75.4492V73.4492ZM553.945 79.0195C553.945 79.9621 554.093 80.9144 554.525 81.9935L556.382 81.2507C556.052 80.4255 555.945 79.7274 555.945 79.0195H553.945ZM554.52 81.981C557.89 90.7439 567.569 96.1426 579.574 96.1426V94.1426C568.093 94.1426 559.364 89.0041 556.386 81.2631L554.52 81.981ZM670.473 81.1143L671.376 81.5434L671.386 81.5231L671.394 81.5023L670.473 81.1143ZM662.284 75.2744L661.473 74.6901L661.466 74.6992L661.46 74.7085L662.284 75.2744ZM625.341 63.9756V62.9756H624.341V63.9756H625.341ZM625.404 55.3428L624.406 55.2814L624.341 56.3428H625.404V55.3428ZM661.269 55.3428V56.3428H662.291L662.268 55.3206L661.269 55.3428ZM644.892 96.1426C657.235 96.1426 666.917 90.9263 671.376 81.5434L669.569 80.6851C665.522 89.2026 656.669 94.1426 644.892 94.1426V96.1426ZM671.394 81.5023C671.92 80.2532 672.298 78.9644 672.298 77.877H670.298C670.298 78.5668 670.041 79.5632 669.551 80.7262L671.394 81.5023ZM672.298 77.877C672.298 76.1858 671.723 74.7099 670.649 73.6562C669.578 72.6045 668.091 72.0527 666.41 72.0527V74.0527C667.65 74.0527 668.606 74.4531 669.249 75.0836C669.889 75.712 670.298 76.6482 670.298 77.877H672.298ZM666.41 72.0527C665.425 72.0527 664.511 72.2367 663.665 72.6847C662.823 73.1308 662.11 73.8049 661.473 74.6901L663.096 75.8587C663.601 75.157 664.094 74.7203 664.601 74.4523C665.103 74.1862 665.682 74.0527 666.41 74.0527V72.0527ZM661.46 74.7085C658.935 78.387 656.544 80.8268 653.889 82.3587C651.247 83.8832 648.258 84.5576 644.447 84.5576V86.5576C648.508 86.5576 651.866 85.8355 654.889 84.091C657.899 82.3539 660.492 79.652 663.109 75.8404L661.46 74.7085ZM644.447 84.5576C638.79 84.5576 634.301 82.5892 631.215 79.1026C628.117 75.6016 626.341 70.4648 626.341 63.9756H624.341C624.341 70.8165 626.215 76.4707 629.718 80.4282C633.233 84.4001 638.298 86.5576 644.447 86.5576V84.5576ZM625.341 64.9756H666.601V62.9756H625.341V64.9756ZM666.601 64.9756C668.721 64.9756 670.528 64.2984 671.801 62.9583C673.067 61.6247 673.694 59.751 673.694 57.5645H671.694C671.694 59.3769 671.179 60.7087 670.351 61.581C669.528 62.4468 668.289 62.9756 666.601 62.9756V64.9756ZM673.694 57.5645C673.694 48.2986 670.652 40.363 665.378 34.7353C660.101 29.103 652.643 25.8418 643.939 25.8418V27.8418C652.121 27.8418 659.04 30.8966 663.919 36.1028C668.802 41.3137 671.694 48.7395 671.694 57.5645H673.694ZM643.939 25.8418C634.565 25.8418 626.791 29.3458 621.372 35.5804C615.967 41.8007 612.979 50.6535 612.979 61.2461H614.979C614.979 51.0183 617.862 42.669 622.882 36.8923C627.89 31.1298 635.096 27.8418 643.939 27.8418V25.8418ZM612.979 61.2461C612.979 72.081 615.882 80.823 621.388 86.8659C626.906 92.9215 634.925 96.1426 644.892 96.1426V94.1426C635.371 94.1426 627.933 91.0795 622.866 85.5189C617.788 79.9456 614.979 71.7393 614.979 61.2461H612.979ZM626.402 55.4041C626.739 49.9239 628.677 45.4327 631.7 42.3206C634.716 39.2148 638.865 37.4268 643.749 37.4268V35.4268C638.35 35.4268 633.676 37.4156 630.265 40.9272C626.86 44.4326 624.768 49.3993 624.406 55.2814L626.402 55.4041ZM643.749 37.4268C648.602 37.4268 652.646 39.1984 655.514 42.2812C658.389 45.3718 660.146 49.8515 660.269 55.365L662.268 55.3206C662.137 49.4083 660.244 44.43 656.978 40.919C653.705 37.4003 649.116 35.4268 643.749 35.4268V37.4268ZM661.269 54.3428H625.404V56.3428H661.269V54.3428ZM784.667 76.5439L783.773 76.0967L783.772 76.0986L784.667 76.5439ZM775.653 69.6885L774.735 69.292L774.731 69.3014L775.653 69.6885ZM775.399 28.0479L776.33 27.6828L776.328 27.6765L775.399 28.0479ZM785.619 23.0967L784.689 23.4643L784.691 23.4681L785.619 23.0967ZM749.945 96.5234C767.003 96.5234 779.33 89.5191 785.562 76.9893L783.772 76.0986C777.943 87.8169 766.403 94.5234 749.945 94.5234V96.5234ZM785.561 76.9912C786.623 74.8673 787.19 72.9986 787.19 70.8311H785.19C785.19 72.599 784.742 74.1581 783.773 76.0967L785.561 76.9912ZM787.19 70.8311C787.19 67.2872 784.576 64.6895 780.985 64.6895V66.6895C783.488 66.6895 785.19 68.4081 785.19 70.8311H787.19ZM780.985 64.6895C779.546 64.6895 778.291 65.0355 777.218 65.8425C776.164 66.6356 775.377 67.8065 774.735 69.292L776.571 70.0849C777.136 68.7775 777.745 67.9489 778.421 67.4407C779.078 66.9464 779.885 66.6895 780.985 66.6895V64.6895ZM774.731 69.3014C770.607 79.127 761.642 83.9863 750.009 83.9863V85.9863C762.242 85.9863 772.067 80.8164 776.575 70.0755L774.731 69.3014ZM750.009 83.9863C741.253 83.9863 734.15 80.527 729.215 74.3786C724.261 68.2074 721.429 59.2454 721.429 48.1699H719.429C719.429 59.5652 722.341 69.0114 727.655 75.6306C732.987 82.2728 740.674 85.9863 750.009 85.9863V83.9863ZM721.429 48.1699C721.429 37.194 724.29 28.2462 729.254 22.0645C734.201 15.9039 741.29 12.417 749.945 12.417V10.417C740.7 10.417 733.031 14.1664 727.695 20.8122C722.375 27.4369 719.429 36.8656 719.429 48.1699H721.429ZM749.945 12.417C760.882 12.417 770.323 18.0491 774.471 28.4192L776.328 27.6765C771.843 16.4645 761.607 10.417 749.945 10.417V12.417ZM774.468 28.4129C775.145 30.139 776.043 31.4998 777.225 32.4285C778.423 33.3692 779.838 33.8086 781.43 33.8086V31.8086C780.229 31.8086 779.263 31.4863 778.461 30.8559C777.644 30.2136 776.923 29.194 776.33 27.6828L774.468 28.4129ZM781.43 33.8086C783.207 33.8086 784.764 33.2236 785.877 32.1002C786.99 30.9775 787.571 29.4072 787.571 27.6035H785.571C785.571 28.9737 785.137 30.0059 784.457 30.6923C783.777 31.3779 782.763 31.8086 781.43 31.8086V33.8086ZM787.571 27.6035C787.571 26.1235 787.222 24.4105 786.548 22.7253L784.691 23.4681C785.286 24.9567 785.571 26.4175 785.571 27.6035H787.571ZM786.549 22.729C780.981 8.64378 766.986 -0.120117 749.945 -0.120117V1.87988C766.293 1.87988 779.467 10.2547 784.689 23.4643L786.549 22.729ZM749.945 -0.120117C737.146 -0.120117 726.547 4.61963 719.16 13.0843C711.784 21.535 707.686 33.6104 707.686 48.1699H709.686C709.686 33.9746 713.68 22.4049 720.666 14.3993C727.641 6.40771 737.671 1.87988 749.945 1.87988V-0.120117ZM707.686 48.1699C707.686 62.8516 711.734 74.9444 719.088 83.382C726.454 91.8346 737.056 96.5234 749.945 96.5234V94.5234C737.571 94.5234 727.543 90.0399 720.595 82.068C713.635 74.081 709.686 62.497 709.686 48.1699H707.686ZM840.272 82.6377V81.6377H839.666L839.386 82.1756L840.272 82.6377ZM840.526 82.6377H841.526V81.6377H840.526V82.6377ZM801.615 38.8389L802.488 39.3275L802.496 39.3131L802.503 39.2985L801.615 38.8389ZM809.74 45.6943L808.869 45.2037L808.865 45.2113L809.74 45.6943ZM839.955 54.9619L840.012 55.9603L840.955 55.9067V54.9619H839.955ZM820.976 56.041L820.919 55.0426L820.917 55.0427L820.976 56.041ZM822.245 64.6104L822.184 63.6122L822.181 63.6124L822.245 64.6104ZM839.955 63.5312H840.955V62.4685L839.894 62.5331L839.955 63.5312ZM819.008 96.1426C828.245 96.1426 837.042 91.0032 841.159 83.0998L839.386 82.1756C835.632 89.3796 827.544 94.1426 819.008 94.1426V96.1426ZM840.272 83.6377H840.526V81.6377H840.272V83.6377ZM839.526 82.6377V89.5566H841.526V82.6377H839.526ZM839.526 89.5566C839.526 91.4269 840.141 93.08 841.267 94.2737C842.397 95.4717 843.984 96.1426 845.795 96.1426V94.1426C844.495 94.1426 843.448 93.6708 842.722 92.9011C841.991 92.127 841.526 90.9872 841.526 89.5566H839.526ZM845.795 96.1426C847.58 96.1426 849.15 95.4676 850.27 94.2706C851.386 93.078 852 91.4267 852 89.5566H850C850 90.9873 849.535 92.129 848.81 92.9042C848.089 93.6749 847.057 94.1426 845.795 94.1426V96.1426ZM852 89.5566V48.3604H850V89.5566H852ZM852 48.3604C852 41.5244 849.447 35.8568 844.825 31.913C840.22 27.9838 833.653 25.8418 825.736 25.8418V27.8418C833.308 27.8418 839.372 29.8893 843.527 33.4344C847.665 36.965 850 42.0567 850 48.3604H852ZM825.736 25.8418C814.779 25.8418 804.701 30.7004 800.727 38.3792L802.503 39.2985C806.019 32.5047 815.239 27.8418 825.736 27.8418V25.8418ZM800.743 38.3503C799.789 40.0539 799.282 41.8078 799.282 43.4092H801.282C801.282 42.2175 801.664 40.7976 802.488 39.3275L800.743 38.3503ZM799.282 43.4092C799.282 45.1342 799.874 46.6368 800.948 47.7106C802.021 48.7835 803.507 49.3604 805.17 49.3604V47.3604C803.976 47.3604 803.019 46.9533 802.362 46.2964C801.706 45.6405 801.282 44.6676 801.282 43.4092H799.282ZM805.17 49.3604C806.35 49.3604 807.421 49.1269 808.361 48.5831C809.302 48.0382 810.039 47.2235 810.616 46.1774L808.865 45.2113C808.426 46.006 807.925 46.5243 807.359 46.8522C806.79 47.1812 806.084 47.3604 805.17 47.3604V49.3604ZM810.612 46.185C812.386 43.0342 814.411 40.8994 816.797 39.5413C819.185 38.1818 822.017 37.5537 825.482 37.5537V35.5537C821.775 35.5537 818.577 36.2269 815.807 37.8032C813.036 39.3809 810.776 41.8163 808.869 45.2037L810.612 46.185ZM825.482 37.5537C829.885 37.5537 833.239 38.7149 835.48 40.7189C837.706 42.7097 838.955 45.6393 838.955 49.4395H840.955C840.955 45.1781 839.538 41.6648 836.813 39.2281C834.103 36.8047 830.22 35.5537 825.482 35.5537V37.5537ZM838.955 49.4395V54.9619H840.955V49.4395H838.955ZM839.898 53.9635L820.919 55.0426L821.032 57.0394L840.012 55.9603L839.898 53.9635ZM820.917 55.0427C813.172 55.4945 806.962 57.5332 802.668 61.0083C798.343 64.5087 796.045 69.4026 796.045 75.3379H798.045C798.045 69.9744 800.095 65.6641 803.926 62.563C807.789 59.4366 813.545 57.4762 821.034 57.0393L820.917 55.0427ZM796.045 75.3379C796.045 81.5349 798.356 86.7636 802.43 90.4344C806.494 94.0969 812.239 96.1426 819.008 96.1426V94.1426C812.637 94.1426 807.4 92.2209 803.768 88.9486C800.146 85.6847 798.045 81.011 798.045 75.3379H796.045ZM821.483 84.748C817.68 84.748 814.615 83.7585 812.525 82.1137C810.456 80.4857 809.28 78.1725 809.28 75.3379H807.28C807.28 78.7875 808.739 81.6793 811.288 83.6854C813.816 85.6746 817.353 86.748 821.483 86.748V84.748ZM809.28 75.3379C809.28 72.5364 810.407 70.2906 812.54 68.6479C814.709 66.9778 817.983 65.8864 822.309 65.6083L822.181 63.6124C817.62 63.9056 813.912 65.0676 811.32 67.0633C808.693 69.0863 807.28 71.9187 807.28 75.3379H809.28ZM822.306 65.6085L840.016 64.5294L839.894 62.5331L822.184 63.6122L822.306 65.6085ZM838.955 63.5312V68.9268H840.955V63.5312H838.955ZM838.955 68.9268C838.955 77.8084 831.433 84.748 821.483 84.748V86.748C832.354 86.748 840.955 79.0881 840.955 68.9268H838.955ZM875.692 38.5215V39.5215H876.301L876.58 38.9813L875.692 38.5215ZM875.438 38.5215H874.438V39.5215H875.438V38.5215ZM870.551 96.1426C872.429 96.1426 874.079 95.4373 875.255 94.1846C876.427 92.9362 877.073 91.2049 877.073 89.2393H875.073C875.073 90.7648 874.577 91.9851 873.797 92.8156C873.021 93.6418 871.91 94.1426 870.551 94.1426V96.1426ZM877.073 89.2393V55.1523H875.073V89.2393H877.073ZM877.073 55.1523C877.073 49.7679 878.708 45.3934 881.504 42.3749C884.294 39.364 888.317 37.6172 893.275 37.6172V35.6172C887.823 35.6172 883.246 37.552 880.037 41.0157C876.835 44.4719 875.073 49.3649 875.073 55.1523H877.073ZM893.275 37.6172C898.161 37.6172 901.647 39.0163 903.927 41.5405C906.224 44.0828 907.446 47.9289 907.446 53.1211H909.446C909.446 47.6493 908.161 43.2433 905.411 40.1998C902.645 37.138 898.546 35.6172 893.275 35.6172V37.6172ZM907.446 53.1211V89.2393H909.446V53.1211H907.446ZM907.446 89.2393C907.446 91.2049 908.092 92.9362 909.265 94.1846C910.441 95.4373 912.091 96.1426 913.969 96.1426V94.1426C912.609 94.1426 911.498 93.6418 910.723 92.8156C909.943 91.9851 909.446 90.7648 909.446 89.2393H907.446ZM913.969 96.1426C915.847 96.1426 917.497 95.4373 918.673 94.1846C919.845 92.9362 920.491 91.2049 920.491 89.2393H918.491C918.491 90.7648 917.995 91.9851 917.215 92.8156C916.439 93.6418 915.328 94.1426 913.969 94.1426V96.1426ZM920.491 89.2393V51.1533H918.491V89.2393H920.491ZM920.491 51.1533C920.491 43.482 918.344 37.1362 914.226 32.6995C910.098 28.2529 904.098 25.8418 896.64 25.8418V27.8418C903.654 27.8418 909.08 30.0962 912.76 34.0602C916.449 38.0342 918.491 43.8441 918.491 51.1533H920.491ZM896.64 25.8418C886.079 25.8418 878.672 30.5925 874.804 38.0616L876.58 38.9813C880.076 32.2317 886.761 27.8418 896.64 27.8418V25.8418ZM875.692 37.5215H875.438V39.5215H875.692V37.5215ZM876.438 38.5215V32.4277H874.438V38.5215H876.438ZM876.438 32.4277C876.438 30.5577 875.824 28.9064 874.709 27.7138C873.589 26.5167 872.018 25.8418 870.233 25.8418V27.8418C871.496 27.8418 872.527 28.3094 873.248 29.0801C873.973 29.8553 874.438 30.997 874.438 32.4277H876.438ZM870.233 25.8418C868.449 25.8418 866.878 26.5167 865.758 27.7138C864.642 28.9064 864.028 30.5577 864.028 32.4277H866.028C866.028 30.997 866.493 29.8553 867.219 29.0801C867.94 28.3094 868.971 27.8418 870.233 27.8418V25.8418ZM864.028 32.4277V89.2393H866.028V32.4277H864.028ZM864.028 89.2393C864.028 91.2049 864.674 92.9362 865.847 94.1846C867.023 95.4373 868.673 96.1426 870.551 96.1426V94.1426C869.191 94.1426 868.08 93.6418 867.305 92.8156C866.525 91.9851 866.028 90.7648 866.028 89.2393H864.028ZM986.459 79.4004L987.404 79.7284L987.409 79.7136L987.413 79.6987L986.459 79.4004ZM977.001 75.6553L977.881 76.1304L977.884 76.1249L977.001 75.6553ZM976.938 46.3291L977.82 45.8585L977.82 45.8581L976.938 46.3291ZM986.522 43.0283L985.559 43.296L985.563 43.3092L985.567 43.3224L986.522 43.0283ZM960.814 96.1426C973.128 96.1426 984.057 89.3661 987.404 79.7284L985.514 79.0724C982.513 87.7159 972.496 94.1426 960.814 94.1426V96.1426ZM987.413 79.6987C987.746 78.6334 987.967 77.5733 987.967 76.6074H985.967C985.967 77.2919 985.806 78.1362 985.505 79.1021L987.413 79.6987ZM987.967 76.6074C987.967 74.9532 987.412 73.4839 986.371 72.4237C985.329 71.3616 983.871 70.7832 982.206 70.7832V72.7832C983.397 72.7832 984.32 73.1886 984.944 73.8246C985.57 74.4624 985.967 75.4052 985.967 76.6074H987.967ZM982.206 70.7832C980.866 70.7832 979.727 71.0334 978.698 71.7976C977.712 72.5299 976.928 73.6622 976.118 75.1857L977.884 76.1249C978.66 74.6649 979.274 73.8612 979.89 73.4033C980.464 72.9774 981.134 72.7832 982.206 72.7832V70.7832ZM976.121 75.1801C974.464 78.2481 972.507 80.5423 970.066 82.0766C967.629 83.608 964.632 84.4307 960.814 84.4307V86.4307C964.931 86.4307 968.314 85.5394 971.13 83.77C973.941 82.0036 976.11 79.4101 977.881 76.1304L976.121 75.1801ZM960.814 84.4307C955.429 84.4307 950.91 82.2458 947.716 78.2738C944.506 74.2824 942.581 68.4136 942.581 60.9922H940.581C940.581 68.7416 942.591 75.0921 946.158 79.5272C949.74 83.9817 954.837 86.4307 960.814 86.4307V84.4307ZM942.581 60.9922C942.581 53.7625 944.474 47.8896 947.673 43.8473C950.857 39.825 955.377 37.5537 960.814 37.5537V35.5537C954.763 35.5537 949.666 38.1066 946.105 42.6061C942.56 47.0855 940.581 53.4318 940.581 60.9922H942.581ZM960.814 37.5537C964.477 37.5537 967.445 38.3303 969.899 39.8412C972.356 41.3536 974.372 43.6471 976.055 46.8001L977.82 45.8581C976.012 42.473 973.775 39.8789 970.947 38.1381C968.117 36.3958 964.769 35.5537 960.814 35.5537V37.5537ZM976.055 46.7997C976.841 48.2727 977.64 49.3968 978.643 50.14C979.683 50.9095 980.845 51.2012 982.206 51.2012V49.2012C981.155 49.2012 980.445 48.985 979.834 48.5326C979.187 48.0539 978.558 47.242 977.82 45.8585L976.055 46.7997ZM982.206 51.2012C983.863 51.2012 985.31 50.6436 986.343 49.5809C987.373 48.5212 987.903 47.0488 987.903 45.377H985.903C985.903 46.625 985.513 47.5647 984.909 48.1871C984.307 48.8066 983.406 49.2012 982.206 49.2012V51.2012ZM987.903 45.377C987.903 44.5667 987.758 43.6422 987.478 42.7342L985.567 43.3224C985.795 44.0648 985.903 44.7907 985.903 45.377H987.903ZM987.486 42.7607C984.791 33.0573 973.427 25.8418 960.688 25.8418V27.8418C972.831 27.8418 983.176 34.7181 985.559 43.296L987.486 42.7607ZM960.688 25.8418C951.285 25.8418 943.419 29.3267 937.913 35.533C932.417 41.7279 929.346 50.5509 929.346 61.1191H931.346C931.346 50.9306 934.304 42.6149 939.409 36.8603C944.504 31.1171 951.808 27.8418 960.688 27.8418V25.8418ZM929.346 61.1191C929.346 71.7527 932.45 80.516 937.983 86.6331C943.524 92.7597 951.422 96.1426 960.814 96.1426V94.1426C951.926 94.1426 944.589 90.9556 939.466 85.2915C934.335 79.6178 931.346 71.3694 931.346 61.1191H929.346ZM1051.97 81.1143L1052.87 81.5434L1052.88 81.5231L1052.89 81.5023L1051.97 81.1143ZM1043.78 75.2744L1042.97 74.6901L1042.96 74.6992L1042.95 74.7085L1043.78 75.2744ZM1006.83 63.9756V62.9756H1005.83V63.9756H1006.83ZM1006.9 55.3428L1005.9 55.2814L1005.84 56.3428H1006.9V55.3428ZM1042.76 55.3428V56.3428H1043.79L1043.76 55.3206L1042.76 55.3428ZM1026.39 96.1426C1038.73 96.1426 1048.41 90.9263 1052.87 81.5434L1051.06 80.6851C1047.02 89.2026 1038.16 94.1426 1026.39 94.1426V96.1426ZM1052.89 81.5023C1053.41 80.2532 1053.79 78.9644 1053.79 77.877H1051.79C1051.79 78.5668 1051.53 79.5632 1051.05 80.7262L1052.89 81.5023ZM1053.79 77.877C1053.79 76.1858 1053.22 74.7099 1052.14 73.6562C1051.07 72.6045 1049.58 72.0527 1047.9 72.0527V74.0527C1049.14 74.0527 1050.1 74.4531 1050.74 75.0836C1051.38 75.712 1051.79 76.6482 1051.79 77.877H1053.79ZM1047.9 72.0527C1046.92 72.0527 1046.01 72.2367 1045.16 72.6847C1044.32 73.1308 1043.6 73.8049 1042.97 74.6901L1044.59 75.8587C1045.1 75.157 1045.59 74.7203 1046.09 74.4523C1046.6 74.1862 1047.18 74.0527 1047.9 74.0527V72.0527ZM1042.95 74.7085C1040.43 78.387 1038.04 80.8268 1035.38 82.3587C1032.74 83.8832 1029.75 84.5576 1025.94 84.5576V86.5576C1030 86.5576 1033.36 85.8355 1036.38 84.091C1039.39 82.3539 1041.99 79.652 1044.6 75.8404L1042.95 74.7085ZM1025.94 84.5576C1020.28 84.5576 1015.8 82.5892 1012.71 79.1026C1009.61 75.6016 1007.83 70.4648 1007.83 63.9756H1005.83C1005.83 70.8165 1007.71 76.4707 1011.21 80.4282C1014.73 84.4001 1019.79 86.5576 1025.94 86.5576V84.5576ZM1006.83 64.9756H1048.09V62.9756H1006.83V64.9756ZM1048.09 64.9756C1050.22 64.9756 1052.02 64.2984 1053.29 62.9583C1054.56 61.6247 1055.19 59.751 1055.19 57.5645H1053.19C1053.19 59.3769 1052.67 60.7087 1051.84 61.581C1051.02 62.4468 1049.78 62.9756 1048.09 62.9756V64.9756ZM1055.19 57.5645C1055.19 48.2986 1052.15 40.363 1046.87 34.7353C1041.59 29.103 1034.14 25.8418 1025.43 25.8418V27.8418C1033.62 27.8418 1040.53 30.8966 1045.41 36.1028C1050.3 41.3137 1053.19 48.7395 1053.19 57.5645H1055.19ZM1025.43 25.8418C1016.06 25.8418 1008.28 29.3458 1002.87 35.5804C997.461 41.8007 994.473 50.6535 994.473 61.2461H996.473C996.473 51.0183 999.356 42.669 1004.38 36.8923C1009.38 31.1298 1016.59 27.8418 1025.43 27.8418V25.8418ZM994.473 61.2461C994.473 72.081 997.376 80.823 1002.88 86.8659C1008.4 92.9215 1016.42 96.1426 1026.39 96.1426V94.1426C1016.87 94.1426 1009.43 91.0795 1004.36 85.5189C999.282 79.9456 996.473 71.7393 996.473 61.2461H994.473ZM1007.9 55.4041C1008.23 49.9239 1010.17 45.4327 1013.19 42.3206C1016.21 39.2148 1020.36 37.4268 1025.24 37.4268V35.4268C1019.84 35.4268 1015.17 37.4156 1011.76 40.9272C1008.35 44.4326 1006.26 49.3993 1005.9 55.2814L1007.9 55.4041ZM1025.24 37.4268C1030.1 37.4268 1034.14 39.1984 1037.01 42.2812C1039.88 45.3718 1041.64 49.8515 1041.76 55.365L1043.76 55.3206C1043.63 49.4083 1041.74 44.43 1038.47 40.919C1035.2 37.4003 1030.61 35.4268 1025.24 35.4268V37.4268ZM1042.76 54.3428H1006.9V56.3428H1042.76V54.3428ZM1071.45 96.1426C1073.33 96.1426 1074.98 95.4373 1076.16 94.1846C1077.33 92.9362 1077.98 91.2049 1077.98 89.2393H1075.98C1075.98 90.7648 1075.48 91.9851 1074.7 92.8156C1073.92 93.6418 1072.81 94.1426 1071.45 94.1426V96.1426ZM1077.98 89.2393V7.16406H1075.98V89.2393H1077.98ZM1077.98 7.16406C1077.98 5.19837 1077.33 3.46707 1076.16 2.2187C1074.98 0.966 1073.33 0.260742 1071.45 0.260742V2.26074C1072.81 2.26074 1073.92 2.76154 1074.7 3.58769C1075.48 4.41818 1075.98 5.63854 1075.98 7.16406H1077.98ZM1071.45 0.260742C1069.58 0.260742 1067.93 0.966 1066.75 2.2187C1065.58 3.46707 1064.93 5.19837 1064.93 7.16406H1066.93C1066.93 5.63854 1067.43 4.41818 1068.21 3.58769C1068.98 2.76154 1070.09 2.26074 1071.45 2.26074V0.260742ZM1064.93 7.16406V89.2393H1066.93V7.16406H1064.93ZM1064.93 89.2393C1064.93 91.2049 1065.58 92.9362 1066.75 94.1846C1067.93 95.4373 1069.58 96.1426 1071.45 96.1426V94.1426C1070.09 94.1426 1068.98 93.6418 1068.21 92.8156C1067.43 91.9851 1066.93 90.7648 1066.93 89.2393H1064.93ZM1097.99 96.1426C1099.87 96.1426 1101.52 95.4373 1102.69 94.1846C1103.86 92.9362 1104.51 91.2049 1104.51 89.2393H1102.51C1102.51 90.7648 1102.01 91.9851 1101.23 92.8156C1100.46 93.6418 1099.35 94.1426 1097.99 94.1426V96.1426ZM1104.51 89.2393V7.16406H1102.51V89.2393H1104.51ZM1104.51 7.16406C1104.51 5.19837 1103.86 3.46707 1102.69 2.2187C1101.52 0.966 1099.87 0.260742 1097.99 0.260742V2.26074C1099.35 2.26074 1100.46 2.76154 1101.23 3.58769C1102.01 4.41818 1102.51 5.63854 1102.51 7.16406H1104.51ZM1097.99 0.260742C1096.11 0.260742 1094.46 0.966 1093.28 2.2187C1092.11 3.46707 1091.46 5.19837 1091.46 7.16406H1093.46C1093.46 5.63854 1093.96 4.41818 1094.74 3.58769C1095.52 2.76154 1096.63 2.26074 1097.99 2.26074V0.260742ZM1091.46 7.16406V89.2393H1093.46V7.16406H1091.46ZM1091.46 89.2393C1091.46 91.2049 1092.11 92.9362 1093.28 94.1846C1094.46 95.4373 1096.11 96.1426 1097.99 96.1426V94.1426C1096.63 94.1426 1095.52 93.6418 1094.74 92.8156C1093.96 91.9851 1093.46 90.7648 1093.46 89.2393H1091.46ZM1158.92 82.6377V81.6377H1158.32L1158.04 82.1756L1158.92 82.6377ZM1159.18 82.6377H1160.18V81.6377H1159.18V82.6377ZM1120.27 38.8389L1121.14 39.3275L1121.15 39.3131L1121.16 39.2985L1120.27 38.8389ZM1128.39 45.6943L1127.52 45.2037L1127.52 45.2113L1128.39 45.6943ZM1158.61 54.9619L1158.66 55.9603L1159.61 55.9067V54.9619H1158.61ZM1139.63 56.041L1139.57 55.0426L1139.57 55.0427L1139.63 56.041ZM1140.9 64.6104L1140.84 63.6122L1140.83 63.6124L1140.9 64.6104ZM1158.61 63.5312H1159.61V62.4685L1158.55 62.5331L1158.61 63.5312ZM1137.66 96.1426C1146.9 96.1426 1155.69 91.0032 1159.81 83.0998L1158.04 82.1756C1154.28 89.3796 1146.2 94.1426 1137.66 94.1426V96.1426ZM1158.92 83.6377H1159.18V81.6377H1158.92V83.6377ZM1158.18 82.6377V89.5566H1160.18V82.6377H1158.18ZM1158.18 89.5566C1158.18 91.4269 1158.79 93.08 1159.92 94.2737C1161.05 95.4717 1162.64 96.1426 1164.45 96.1426V94.1426C1163.15 94.1426 1162.1 93.6708 1161.37 92.9011C1160.64 92.127 1160.18 90.9872 1160.18 89.5566H1158.18ZM1164.45 96.1426C1166.23 96.1426 1167.8 95.4676 1168.92 94.2706C1170.04 93.078 1170.65 91.4267 1170.65 89.5566H1168.65C1168.65 90.9873 1168.19 92.129 1167.46 92.9042C1166.74 93.6749 1165.71 94.1426 1164.45 94.1426V96.1426ZM1170.65 89.5566V48.3604H1168.65V89.5566H1170.65ZM1170.65 48.3604C1170.65 41.5244 1168.1 35.8568 1163.48 31.913C1158.87 27.9838 1152.31 25.8418 1144.39 25.8418V27.8418C1151.96 27.8418 1158.02 29.8893 1162.18 33.4344C1166.32 36.965 1168.65 42.0567 1168.65 48.3604H1170.65ZM1144.39 25.8418C1133.43 25.8418 1123.35 30.7004 1119.38 38.3792L1121.16 39.2985C1124.67 32.5047 1133.89 27.8418 1144.39 27.8418V25.8418ZM1119.4 38.3503C1118.44 40.0539 1117.93 41.8078 1117.93 43.4092H1119.93C1119.93 42.2175 1120.32 40.7976 1121.14 39.3275L1119.4 38.3503ZM1117.93 43.4092C1117.93 45.1342 1118.53 46.6368 1119.6 47.7106C1120.67 48.7835 1122.16 49.3604 1123.82 49.3604V47.3604C1122.63 47.3604 1121.67 46.9533 1121.01 46.2964C1120.36 45.6405 1119.93 44.6676 1119.93 43.4092H1117.93ZM1123.82 49.3604C1125 49.3604 1126.07 49.1269 1127.01 48.5831C1127.95 48.0382 1128.69 47.2235 1129.27 46.1774L1127.52 45.2113C1127.08 46.006 1126.58 46.5243 1126.01 46.8522C1125.44 47.1812 1124.74 47.3604 1123.82 47.3604V49.3604ZM1129.26 46.185C1131.04 43.0342 1133.06 40.8994 1135.45 39.5413C1137.84 38.1818 1140.67 37.5537 1144.13 37.5537V35.5537C1140.43 35.5537 1137.23 36.2269 1134.46 37.8032C1131.69 39.3809 1129.43 41.8163 1127.52 45.2037L1129.26 46.185ZM1144.13 37.5537C1148.54 37.5537 1151.89 38.7149 1154.13 40.7189C1156.36 42.7097 1157.61 45.6393 1157.61 49.4395H1159.61C1159.61 45.1781 1158.19 41.6648 1155.47 39.2281C1152.76 36.8047 1148.87 35.5537 1144.13 35.5537V37.5537ZM1157.61 49.4395V54.9619H1159.61V49.4395H1157.61ZM1158.55 53.9635L1139.57 55.0426L1139.68 57.0394L1158.66 55.9603L1158.55 53.9635ZM1139.57 55.0427C1131.82 55.4945 1125.61 57.5332 1121.32 61.0083C1117 64.5087 1114.7 69.4026 1114.7 75.3379H1116.7C1116.7 69.9744 1118.75 65.6641 1122.58 62.563C1126.44 59.4366 1132.2 57.4762 1139.69 57.0393L1139.57 55.0427ZM1114.7 75.3379C1114.7 81.5349 1117.01 86.7636 1121.08 90.4344C1125.15 94.0969 1130.89 96.1426 1137.66 96.1426V94.1426C1131.29 94.1426 1126.05 92.2209 1122.42 88.9486C1118.8 85.6847 1116.7 81.011 1116.7 75.3379H1114.7ZM1140.14 84.748C1136.33 84.748 1133.27 83.7585 1131.18 82.1137C1129.11 80.4857 1127.93 78.1725 1127.93 75.3379H1125.93C1125.93 78.7875 1127.39 81.6793 1129.94 83.6854C1132.47 85.6746 1136.01 86.748 1140.14 86.748V84.748ZM1127.93 75.3379C1127.93 72.5364 1129.06 70.2906 1131.19 68.6479C1133.36 66.9778 1136.64 65.8864 1140.96 65.6083L1140.83 63.6124C1136.27 63.9056 1132.56 65.0676 1129.97 67.0633C1127.35 69.0863 1125.93 71.9187 1125.93 75.3379H1127.93ZM1140.96 65.6085L1158.67 64.5294L1158.55 62.5331L1140.84 63.6122L1140.96 65.6085ZM1157.61 63.5312V68.9268H1159.61V63.5312H1157.61ZM1157.61 68.9268C1157.61 77.8084 1150.09 84.748 1140.14 84.748V86.748C1151.01 86.748 1159.61 79.0881 1159.61 68.9268H1157.61ZM1206.72 85.0498L1206.79 84.0523L1206.79 84.052L1206.72 85.0498ZM1205.77 84.9863L1205.7 85.984L1205.7 85.9841L1205.77 84.9863ZM1198.28 37.0615V36.0615H1197.28V37.0615H1198.28ZM1198.28 27.9844H1197.28V28.9844H1198.28V27.9844ZM1187.24 27.9844V28.9844H1188.24V27.9844H1187.24ZM1187.24 37.0615H1188.24V36.0615H1187.24V37.0615ZM1186.24 78.7656C1186.24 84.1914 1187.61 88.4294 1190.53 91.3016C1193.45 94.1704 1197.75 95.5078 1203.23 95.5078V93.5078C1198.05 93.5078 1194.35 92.2426 1191.94 89.8747C1189.53 87.51 1188.24 83.877 1188.24 78.7656H1186.24ZM1203.23 95.5078H1203.93V93.5078H1203.23V95.5078ZM1203.93 95.5078C1207.06 95.5078 1209.33 95.0661 1210.84 94.0201C1212.44 92.9076 1212.99 91.2529 1212.99 89.3662H1210.99C1210.99 90.8438 1210.59 91.7598 1209.7 92.3772C1208.71 93.0608 1206.96 93.5078 1203.93 93.5078V95.5078ZM1212.99 89.3662C1212.99 87.8341 1212.49 86.5101 1211.35 85.5596C1210.26 84.6455 1208.7 84.1861 1206.79 84.0523L1206.65 86.0473C1208.36 86.1674 1209.44 86.5649 1210.07 87.0949C1210.66 87.5886 1210.99 88.2958 1210.99 89.3662H1212.99ZM1206.79 84.052L1205.84 83.9885L1205.7 85.9841L1206.66 86.0476L1206.79 84.052ZM1205.84 83.9887C1203.21 83.8077 1201.66 83.0987 1200.72 81.9799C1199.76 80.8365 1199.28 79.0624 1199.28 76.3535H1197.28C1197.28 79.2306 1197.78 81.5824 1199.19 83.2637C1200.62 84.9697 1202.8 85.7841 1205.7 85.984L1205.84 83.9887ZM1199.28 76.3535V37.0615H1197.28V76.3535H1199.28ZM1198.28 38.0615H1206.79V36.0615H1198.28V38.0615ZM1206.79 38.0615C1208.54 38.0615 1210.05 37.6055 1211.13 36.6056C1212.22 35.5948 1212.74 34.1579 1212.74 32.4912H1210.74C1210.74 33.7444 1210.36 34.5927 1209.77 35.1371C1209.17 35.6923 1208.21 36.0615 1206.79 36.0615V38.0615ZM1212.74 32.4912C1212.74 30.85 1212.22 29.4293 1211.13 28.4289C1210.05 27.4403 1208.54 26.9844 1206.79 26.9844V28.9844C1208.21 28.9844 1209.18 29.3536 1209.78 29.9044C1210.37 30.4433 1210.74 31.276 1210.74 32.4912H1212.74ZM1206.79 26.9844H1198.28V28.9844H1206.79V26.9844ZM1199.28 27.9844V16.6855H1197.28V27.9844H1199.28ZM1199.28 16.6855C1199.28 14.7199 1198.63 12.9886 1197.46 11.7402C1196.29 10.4875 1194.64 9.78223 1192.76 9.78223V11.7822C1194.12 11.7822 1195.23 12.283 1196 13.1092C1196.78 13.9397 1197.28 15.16 1197.28 16.6855H1199.28ZM1192.76 9.78223C1190.88 9.78223 1189.23 10.4875 1188.05 11.7402C1186.88 12.9886 1186.24 14.7199 1186.24 16.6855H1188.24C1188.24 15.16 1188.73 13.9397 1189.51 13.1092C1190.29 12.283 1191.4 11.7822 1192.76 11.7822V9.78223ZM1186.24 16.6855V27.9844H1188.24V16.6855H1186.24ZM1187.24 26.9844H1181.71V28.9844H1187.24V26.9844ZM1181.71 26.9844C1179.96 26.9844 1178.45 27.4403 1177.37 28.4289C1176.28 29.4293 1175.76 30.85 1175.76 32.4912H1177.76C1177.76 31.276 1178.13 30.4433 1178.72 29.9044C1179.32 29.3536 1180.29 28.9844 1181.71 28.9844V26.9844ZM1175.76 32.4912C1175.76 34.1579 1176.27 35.5948 1177.37 36.6056C1178.45 37.6055 1179.96 38.0615 1181.71 38.0615V36.0615C1180.29 36.0615 1179.33 35.6923 1178.73 35.1371C1178.14 34.5927 1177.76 33.7444 1177.76 32.4912H1175.76ZM1181.71 38.0615H1187.24V36.0615H1181.71V38.0615ZM1186.24 37.0615V78.7656H1188.24V37.0615H1186.24ZM1229 17.876C1233.36 17.876 1236.92 14.3239 1236.92 10.0205H1234.92C1234.92 13.2074 1232.27 15.876 1229 15.876V17.876ZM1236.92 10.0205C1236.92 5.64766 1233.35 2.16504 1229 2.16504V4.16504C1232.27 4.16504 1234.92 6.77617 1234.92 10.0205H1236.92ZM1229 2.16504C1224.71 2.16504 1221.15 5.65361 1221.15 10.0205H1223.15C1223.15 6.77021 1225.8 4.16504 1229 4.16504V2.16504ZM1221.15 10.0205C1221.15 14.3179 1224.71 17.876 1229 17.876V15.876C1225.81 15.876 1223.15 13.2133 1223.15 10.0205H1221.15ZM1229 96.1426C1230.88 96.1426 1232.53 95.4373 1233.71 94.1846C1234.88 92.9362 1235.53 91.2049 1235.53 89.2393H1233.53C1233.53 90.7648 1233.03 91.9851 1232.25 92.8156C1231.47 93.6418 1230.36 94.1426 1229 94.1426V96.1426ZM1235.53 89.2393V32.7451H1233.53V89.2393H1235.53ZM1235.53 32.7451C1235.53 30.7794 1234.88 29.0481 1233.71 27.7998C1232.53 26.5471 1230.88 25.8418 1229 25.8418V27.8418C1230.36 27.8418 1231.47 28.3426 1232.25 29.1687C1233.03 29.9992 1233.53 31.2196 1233.53 32.7451H1235.53ZM1229 25.8418C1227.12 25.8418 1225.47 26.5471 1224.3 27.7998C1223.13 29.0481 1222.48 30.7794 1222.48 32.7451H1224.48C1224.48 31.2196 1224.98 29.9992 1225.76 29.1687C1226.53 28.3426 1227.64 27.8418 1229 27.8418V25.8418ZM1222.48 32.7451V89.2393H1224.48V32.7451H1222.48ZM1222.48 89.2393C1222.48 91.2049 1223.13 92.9362 1224.3 94.1846C1225.47 95.4373 1227.12 96.1426 1229 96.1426V94.1426C1227.64 94.1426 1226.53 93.6418 1225.76 92.8156C1224.98 91.9851 1224.48 90.7648 1224.48 89.2393H1222.48ZM1276.8 96.1426C1286.16 96.1426 1294.08 92.7593 1299.64 86.6178C1305.2 80.4854 1308.33 71.6904 1308.33 60.9922H1306.33C1306.33 71.3047 1303.31 79.5849 1298.16 85.275C1293.01 90.956 1285.66 94.1426 1276.8 94.1426V96.1426ZM1308.33 60.9922C1308.33 50.2629 1305.2 41.4673 1299.64 35.3422C1294.07 29.2082 1286.16 25.8418 1276.8 25.8418V27.8418C1285.66 27.8418 1293.01 31.0135 1298.16 36.6861C1303.31 42.3676 1306.33 50.6473 1306.33 60.9922H1308.33ZM1276.8 25.8418C1267.41 25.8418 1259.48 29.2075 1253.91 35.3417C1248.34 41.467 1245.21 50.2629 1245.21 60.9922H1247.21C1247.21 50.6473 1250.23 42.368 1255.39 36.6866C1260.54 31.0142 1267.91 27.8418 1276.8 27.8418V25.8418ZM1245.21 60.9922C1245.21 71.6904 1248.34 80.4857 1253.91 86.6184C1259.48 92.76 1267.41 96.1426 1276.8 96.1426V94.1426C1267.91 94.1426 1260.54 90.9553 1255.39 85.2744C1250.23 79.5846 1247.21 71.3047 1247.21 60.9922H1245.21ZM1276.8 84.4307C1271.24 84.4307 1266.69 82.3256 1263.52 78.4132C1260.32 74.4772 1258.44 68.615 1258.44 60.9922H1256.44C1256.44 68.9211 1258.4 75.2782 1261.96 79.6734C1265.55 84.0924 1270.69 86.4307 1276.8 86.4307V84.4307ZM1258.44 60.9922C1258.44 53.3694 1260.32 47.5072 1263.52 43.5711C1266.69 39.6588 1271.24 37.5537 1276.8 37.5537V35.5537C1270.69 35.5537 1265.55 37.892 1261.96 42.3109C1258.4 46.7062 1256.44 53.0633 1256.44 60.9922H1258.44ZM1276.8 37.5537C1282.36 37.5537 1286.89 39.6583 1290.05 43.5693C1293.23 47.505 1295.1 53.3675 1295.1 60.9922H1297.1C1297.1 53.0651 1295.16 46.7084 1291.61 42.3127C1288.04 37.8924 1282.92 35.5537 1276.8 35.5537V37.5537ZM1295.1 60.9922C1295.1 68.6168 1293.23 74.4794 1290.05 78.415C1286.89 82.326 1282.36 84.4307 1276.8 84.4307V86.4307C1282.92 86.4307 1288.04 84.0919 1291.61 79.6716C1295.16 75.276 1297.1 68.9193 1297.1 60.9922H1295.1ZM1329.17 38.5215V39.5215H1329.78L1330.06 38.9813L1329.17 38.5215ZM1328.92 38.5215H1327.92V39.5215H1328.92V38.5215ZM1324.03 96.1426C1325.91 96.1426 1327.56 95.4373 1328.73 94.1846C1329.9 92.9362 1330.55 91.2049 1330.55 89.2393H1328.55C1328.55 90.7648 1328.05 91.9851 1327.27 92.8156C1326.5 93.6418 1325.39 94.1426 1324.03 94.1426V96.1426ZM1330.55 89.2393V55.1523H1328.55V89.2393H1330.55ZM1330.55 55.1523C1330.55 49.7679 1332.18 45.3934 1334.98 42.3749C1337.77 39.364 1341.79 37.6172 1346.75 37.6172V35.6172C1341.3 35.6172 1336.72 37.552 1333.51 41.0157C1330.31 44.4719 1328.55 49.3649 1328.55 55.1523H1330.55ZM1346.75 37.6172C1351.64 37.6172 1355.12 39.0163 1357.4 41.5405C1359.7 44.0828 1360.92 47.9289 1360.92 53.1211H1362.92C1362.92 47.6493 1361.64 43.2433 1358.89 40.1998C1356.12 37.138 1352.02 35.6172 1346.75 35.6172V37.6172ZM1360.92 53.1211V89.2393H1362.92V53.1211H1360.92ZM1360.92 89.2393C1360.92 91.2049 1361.57 92.9362 1362.74 94.1846C1363.92 95.4373 1365.57 96.1426 1367.45 96.1426V94.1426C1366.09 94.1426 1364.97 93.6418 1364.2 92.8156C1363.42 91.9851 1362.92 90.7648 1362.92 89.2393H1360.92ZM1367.45 96.1426C1369.32 96.1426 1370.97 95.4373 1372.15 94.1846C1373.32 92.9362 1373.97 91.2049 1373.97 89.2393H1371.97C1371.97 90.7648 1371.47 91.9851 1370.69 92.8156C1369.92 93.6418 1368.8 94.1426 1367.45 94.1426V96.1426ZM1373.97 89.2393V51.1533H1371.97V89.2393H1373.97ZM1373.97 51.1533C1373.97 43.482 1371.82 37.1362 1367.7 32.6995C1363.57 28.2529 1357.57 25.8418 1350.12 25.8418V27.8418C1357.13 27.8418 1362.56 30.0962 1366.24 34.0602C1369.93 38.0342 1371.97 43.8441 1371.97 51.1533H1373.97ZM1350.12 25.8418C1339.56 25.8418 1332.15 30.5925 1328.28 38.0616L1330.06 38.9813C1333.55 32.2317 1340.24 27.8418 1350.12 27.8418V25.8418ZM1329.17 37.5215H1328.92V39.5215H1329.17V37.5215ZM1329.92 38.5215V32.4277H1327.92V38.5215H1329.92ZM1329.92 32.4277C1329.92 30.5577 1329.3 28.9064 1328.19 27.7138C1327.07 26.5167 1325.49 25.8418 1323.71 25.8418V27.8418C1324.97 27.8418 1326 28.3094 1326.72 29.0801C1327.45 29.8553 1327.92 30.997 1327.92 32.4277H1329.92ZM1323.71 25.8418C1321.93 25.8418 1320.35 26.5167 1319.23 27.7138C1318.12 28.9064 1317.5 30.5577 1317.5 32.4277H1319.5C1319.5 30.997 1319.97 29.8553 1320.7 29.0801C1321.42 28.3094 1322.45 27.8418 1323.71 27.8418V25.8418ZM1317.5 32.4277V89.2393H1319.5V32.4277H1317.5ZM1317.5 89.2393C1317.5 91.2049 1318.15 92.9362 1319.32 94.1846C1320.5 95.4373 1322.15 96.1426 1324.03 96.1426V94.1426C1322.67 94.1426 1321.56 93.6418 1320.78 92.8156C1320 91.9851 1319.5 90.7648 1319.5 89.2393H1317.5Z" fill="white"/>
</svg>
