<svg width="700" height="812" viewBox="0 0 700 812" fill="none" xmlns="http://www.w3.org/2000/svg">
<path opacity="0.5" fill-rule="evenodd" clip-rule="evenodd" d="M1410.41 654.285L1408.59 657.441C1389.43 689.976 1364.62 718.49 1335.08 742.738C1304.14 768.091 1269.5 786.719 1232.22 798.088C1147.72 824.265 1056.12 811.532 967.064 760.883C780.824 655.264 562.419 712.409 386.281 758.495L384.689 758.912C305.375 780.049 230.277 799.796 170.184 801.434C103.435 803.437 60.3336 783.524 34.4588 738.371C7.54024 691.086 -3.53893 633.441 1.90877 566.215C5.89758 512.68 20.4231 453.372 44.8229 389.439C84.189 286.405 137.376 205.432 143.402 196.258C143.735 195.752 143.924 195.464 143.958 195.404C184.261 143.329 228.857 100.235 276.184 67.5148C320.434 36.8418 368.455 14.0833 418.852 0.345076L418.853 0.344762C422.002 -0.513751 425.152 -1.37223 428.136 -1.94394C327.602 23.7699 231.025 84.6592 144.811 195.896C144.764 195.978 144.535 196.33 144.137 196.941C137.576 207.015 85.1207 287.557 45.8416 389.645C7.34993 489.807 -25.5221 631.458 35.3587 738.126C60.8304 782.664 103.766 802.863 170.231 800.696C230.49 798.771 305.422 779.312 384.57 758.461C473.167 735.034 573.582 708.87 673.23 701.766C781.856 694.149 873.961 711.016 954.268 753.139C775.473 653.025 566.012 708.032 397.321 752.332L396.741 752.485L392.714 753.532L389.775 754.296L389.775 754.296L389.774 754.296C316.073 773.466 246.579 791.541 190.454 793.25C126.239 794.803 84.7257 775.425 59.8946 732.405C34.1854 686.965 23.4157 631.411 28.676 567.136C32.6898 515.528 46.6248 458.557 69.9841 397.082C108.209 297.678 159.593 219.093 164.69 211.298C164.937 210.92 165.075 210.709 165.098 210.669C203.791 160.725 246.659 119.31 292.14 87.8184C334.543 58.3739 380.883 36.5571 429.196 23.1454C446.295 18.4843 463.631 14.725 481.489 12.0321C369.39 29.539 261.158 88.2884 165.951 211.161C165.903 211.244 165.676 211.593 165.284 212.197C158.894 222.024 108.602 299.373 71.0028 397.288C34.0953 493.392 2.45122 629.633 60.9602 731.873C85.5068 774.729 126.736 793.943 190.382 792.061C248.273 790.299 320.221 771.411 396.219 751.419C481.217 728.973 577.748 703.626 673.676 697.053C773.381 690.221 858.697 704.543 933.281 740.995C763.848 652.323 567.203 704.049 408.509 745.892C335.21 765.148 266.412 783.178 210.725 785.065C148.997 786.907 109.189 768.514 85.7334 727.052C60.7836 683.581 50.6076 630.282 55.5617 568.508C59.435 519.113 72.9451 464.191 95.3827 405.626C132.07 310.159 181.124 235.034 186.072 227.457L186.073 227.456C186.315 227.084 186.452 226.875 186.475 226.835C199.494 210.098 212.938 194.406 226.794 179.771C213.273 194.177 200.097 209.632 187.256 226.139C187.178 226.274 186.874 226.752 186.361 227.559C183.614 231.876 174.888 245.591 162.887 266.377C144.174 298.79 117.892 348.251 96.1639 404.93C60.8406 496.977 30.5899 627.521 86.5614 725.618C110.183 766.793 149.706 785.022 210.7 783.138C264.477 781.588 330.865 764.356 401.437 746.038L401.493 746.024C403.763 745.434 406.039 744.844 408.318 744.252L413.233 742.97C493.689 721.983 584.04 698.415 674.288 692.051C771.15 685.33 853.349 699.606 925.606 735.259C762.779 648.288 573.075 698.111 420.323 738.563C418.026 739.158 415.732 739.752 413.443 740.345C346.004 757.811 282.331 774.301 230.923 775.692C171.849 777.536 133.913 759.841 111.097 719.896C87.357 678.271 77.4904 627.063 82.1384 567.789C85.8712 520.607 98.5064 467.857 120.353 411.629C155.61 319.684 203.335 247.264 207.428 241.053L207.579 240.824C207.614 240.771 207.642 240.728 207.663 240.695C207.689 240.656 207.704 240.632 207.709 240.624C276.718 151.962 358.374 93.932 450.049 68.4579C528.959 46.7052 617.882 48.326 714.449 73.4827C891.212 119.316 1062.15 233.687 1187.13 317.321C1191.1 319.951 1195.04 322.562 1198.93 325.149L1199.04 325.223L1199.05 325.224C1225.82 342.997 1250.88 359.624 1272.76 373.257C1320.39 403.052 1349.74 446.772 1357.15 499.619C1363.58 546.93 1352.34 598.574 1325.18 645.616L1323.52 648.484C1288.39 707.368 1231.86 752.749 1167.82 772.38C1099.66 793.386 1026.44 786.005 954.493 750.71C1130.12 844.722 1282.78 765.74 1351.1 650.636L1352.75 647.767C1391.41 580.81 1403.72 493.216 1360.4 424.75C1374.31 446.335 1383.29 470.698 1386.92 497.303C1394.04 545.394 1381.93 599.21 1353.44 648.547L1351.62 651.702C1314.83 713.453 1255.67 760.759 1189.22 781.291C1117.47 803.516 1040.32 795.136 964.75 757.814C1148.31 856.767 1307.81 774.254 1379.19 653.854L1380.85 650.985C1434.34 558.336 1439.41 427.405 1324.41 356.036C1299.98 340.911 1271.92 322.161 1242.05 302.204L1242.04 302.198C1238.43 299.791 1234.81 297.367 1231.15 294.929C1101.2 207.918 930.103 93.7868 752.017 38.8789C930.63 93.5845 1101.81 207.817 1229.26 292.871L1229.26 292.871L1231.48 294.356C1234.22 296.184 1236.95 298.005 1239.66 299.816L1242.37 301.624L1242.38 301.631C1272.25 321.588 1300.31 340.337 1324.74 355.462C1376.92 387.884 1408.69 435.295 1416.39 492.897C1424.05 543.981 1411.8 600.011 1382.15 651.355L1380.33 654.51C1342.05 718.844 1280.26 768.074 1210.94 789.629C1133.44 813.524 1049.64 803.455 967.79 760.533C1162.39 870.727 1332.34 784.258 1407.74 656.948L1409.56 653.793C1465.2 557.415 1470.32 421.155 1350.64 346.707C1322.14 329.101 1288.77 306.776 1253.58 283.016L1252.23 282.118C1120.76 194.373 949.53 80.0901 770.385 21.2554C950.555 80.0299 1122.52 194.551 1251.81 280.646L1254.07 282.155C1258.92 285.374 1263.73 288.571 1268.5 291.738L1268.5 291.738C1298.49 311.668 1326.69 330.407 1351.14 345.847C1405.31 379.418 1438.13 428.962 1446.7 488.983C1454.23 542.28 1441.22 600.933 1410.41 654.285ZM713.092 27.8793C726.095 31.2109 739.074 34.8886 752.017 38.8789C740.27 35.2813 728.492 31.941 716.691 28.8835C715.494 28.5437 714.294 28.2088 713.092 27.8793ZM689.115 22.1409C697.114 23.9181 705.108 25.8335 713.092 27.8793C705.134 25.6978 697.08 23.7492 689.115 22.1409ZM1298.78 364.953C1325.99 381.892 1346.19 402.292 1360.4 424.75C1345.43 401.531 1324.77 381.526 1298.9 365.404C1272.67 349.111 1241.98 328.716 1209.46 306.884C1078.96 219.679 900.223 100.424 715.642 52.3716C614.716 26.228 522.121 24.3994 439.611 47.1335C360.948 68.7752 289.631 113.401 226.794 179.771C355.738 42.3897 516.044 0.443813 715.808 52.0848C900.104 99.9733 1078.84 219.228 1209.35 306.433C1241.86 328.265 1272.55 348.66 1298.78 364.953ZM121.491 412.286C142.179 358.066 167.301 310.613 185.186 279.634C193.93 264.49 201.016 253.305 204.923 247.138C207.085 243.727 208.273 241.851 208.231 241.69C337.918 74.8554 503.216 20.3688 713.905 75.0811C890.218 121.037 1061.32 235.121 1186.31 318.756L1189.23 320.699L1190.73 321.693L1195.33 324.745L1195.34 324.751C1223.01 343.131 1249.28 360.581 1271.93 374.691C1377.43 440.192 1372.9 560.342 1323.88 645.246L1322.39 647.828C1257.85 756.436 1115.48 831.222 950.66 747.682C1016.62 777.914 1083.68 783.657 1146.21 764.494C1207.27 745.434 1261.74 702.306 1295.1 645.84L1296.75 642.972C1322.75 597.938 1333.57 548.343 1326.95 503.983C1320.14 453.392 1292.28 411.682 1246.47 383.322C1225.69 370.332 1202 354.504 1176.61 337.549C1172.72 334.952 1168.79 332.329 1164.83 329.685L1163.6 328.868L1163.6 328.868C1044.37 249.326 881.317 140.558 713.116 96.807C702.103 93.9707 691.191 91.4492 680.384 89.2433C514.422 54.5023 379.04 94.2981 268.838 210.103C255.036 224.457 241.685 239.967 228.802 256.626C228.778 256.669 228.638 256.882 228.391 257.259C223.611 264.557 178.572 333.325 145.302 420.296C124.496 474.066 112.332 524.028 108.859 569.447C104.233 626.056 113.671 674.723 136.487 714.667C158.258 752.479 194.607 769.64 251.028 767.794C301.142 766.257 363.023 750.055 428.794 732.835L428.795 732.834L432.092 731.971C574.703 694.255 750.594 647.912 903.642 723.266C837.422 693.098 762.092 681.272 674.735 687.337C586.647 693.465 498.215 716.605 419.967 737.21L416.754 738.053C347.81 756.137 283.192 773.087 230.851 774.503C172.227 776.224 134.575 758.693 112.163 719.364C58.5634 625.696 87.5861 500.563 121.491 412.286ZM229.583 255.93C242.299 239.519 255.381 224.244 268.838 210.103C325.573 151.1 389.922 111.629 460.63 92.1595C526.935 73.872 600.817 73.003 680.384 89.2433C690.926 91.45 701.591 93.9576 712.381 96.7654C880.299 140.353 1043.35 249.12 1162.59 328.662L1163.81 329.48C1193.48 349.67 1221.78 368.301 1245.74 383.281C1346.57 445.704 1342.08 560.525 1295.21 641.7L1293.72 644.282C1232.44 747.89 1096.65 819.2 939.497 740.059C1002.16 768.578 1065.89 774.206 1125.1 755.748C1183.29 737.711 1235.13 696.508 1267 642.624L1268.49 640.042C1293.33 597.016 1303.39 550.045 1297.75 506.628C1291.08 458.415 1264.43 418.55 1220.89 391.504C1197.79 377.017 1171.2 359.37 1142.79 340.288L1142.77 340.281L1142.77 340.28C1028.95 264.238 872.996 160.05 712.041 118.37C623.862 95.7606 542.898 94.1454 471.187 113.935C387.327 137.038 312.939 189.703 250.154 270.867C250.129 270.91 249.992 271.121 249.748 271.493C245.126 278.56 202.412 343.874 170.676 426.915C151.076 477.939 139.337 525.852 136.004 569.057C131.85 622.879 140.694 669.29 162.301 707.389C182.982 743.806 217.789 759.696 271.677 758.299C319.436 756.922 378.196 741.569 440.833 725.202L444.072 724.356L444.452 724.256L444.452 724.256C580.323 688.608 747.843 644.657 893.547 716.265C830.416 687.667 758.424 676.539 675.063 682.172C591.466 687.9 507.413 709.997 433.084 729.538L431.782 729.88C365.068 747.583 301.835 763.854 251.169 765.581C195.197 767.304 159.252 750.758 137.765 713.11C86.7025 623.584 114.332 504.148 146.652 419.928C166.584 368.331 190.547 322.886 207.604 293.342C213.768 282.666 219.033 273.996 222.863 267.688C227.06 260.777 229.534 256.701 229.583 255.93ZM229.903 306.599C213.508 334.996 190.87 378.147 171.814 427.572C140.912 508.021 114.676 621.76 163.485 707.308C183.763 743.11 218.286 758.835 271.439 757.397C319.736 755.833 379.986 740.134 443.55 723.289L444.912 722.932C515.632 704.375 596.058 683.271 675.629 677.91C762.94 671.927 836.637 685.418 901.16 719.008C901.121 718.986 901.081 718.963 901.042 718.941C758.482 638.164 590.903 682.154 456.29 717.642L453.029 718.491L453.029 718.492L453.027 718.492C393.54 734.001 337.497 748.612 292.113 749.828C240.878 751.227 207.942 736.036 188.021 701.587C141.18 619.853 166.354 511.237 196.003 434.271C226.287 354.806 267.637 292.229 271.46 286.443C271.634 286.18 271.73 286.034 271.744 286.009C331.476 208.819 402.17 158.611 481.815 136.9C550.21 118.255 627.218 119.499 710.873 141.408C863.85 181.157 1012.18 280.181 1120.48 352.653C1124.55 355.348 1128.59 358.02 1132.57 360.663C1155.19 375.647 1176.34 389.666 1194.77 401.283C1236.32 427.18 1261.48 465.035 1268 510.871C1273.38 551.458 1263.75 596.381 1240.23 637.112L1238.74 639.693C1208.36 690.996 1159.15 730.274 1103.82 747.288C1042.63 766.256 976.545 758.415 911.984 724.879C912.089 724.938 912.193 724.998 912.298 725.057C1068.51 813.714 1204.99 744.121 1265.7 642.254L1267.19 639.672C1311.9 562.226 1316.18 453.021 1220.19 393.389C1197.36 379.066 1170.49 361.256 1142.08 342.173L1142.07 342.167C1028.24 266.125 872.288 161.936 711.782 120.132C519.786 70.4756 369.099 120.012 251.126 271.811C251.079 271.891 250.868 272.219 250.504 272.782L250.502 272.784C248.284 276.216 240.428 288.37 229.903 306.599ZM196.975 435.215C214.991 388.249 236.754 347.27 252.321 320.308C259.324 308.178 265.044 298.971 268.534 293.351L268.535 293.35L268.536 293.349C270.905 289.535 272.247 287.374 272.266 287.076C384.465 142.652 527.62 95.6517 710.045 142.842C863.022 182.592 1011.07 281.451 1119.37 353.923C1121.08 355.057 1122.79 356.188 1124.49 357.314C1126.67 358.755 1128.83 360.19 1130.98 361.615L1131.45 361.924C1154.06 376.911 1175.23 390.933 1193.66 402.553C1284.83 459.394 1281.04 563.147 1238.48 636.865L1237.15 639.159C1180.28 735.073 1053.09 800.453 906.94 721.073C966.056 749.859 1026.42 755.869 1082.26 738.665C1134.43 722.509 1181.31 685.32 1210.2 636.599L1211.52 634.304C1233.88 595.581 1243.37 552.872 1238.58 514.54C1232.37 470.795 1208.25 435.072 1168.99 410.489C1149.9 398.767 1127.76 383.982 1104.49 368.442L1104.22 368.257L1101.45 366.406L1098.51 364.444L1096.39 363.032C993.914 294.702 854.033 201.432 709.871 164.159C630.409 143.524 557.404 141.914 492.443 159.864C416.848 180.472 349.562 228.059 292.884 301.275C292.869 301.3 292.777 301.44 292.612 301.692C288.992 307.224 250.198 366.504 221.164 441.914C193.265 514.536 169.319 617.741 213.622 695.333C232.334 727.936 263.683 742.593 312.264 741.193C354.374 740.16 406.111 726.692 461.125 712.372C463.391 711.782 465.662 711.191 467.939 710.599C593.275 677.621 749.207 636.77 882.921 708.276C823.447 679.289 755.437 667.758 676.075 673.196C599.83 678.512 523.098 698.463 455.484 716.411C330.32 749.322 231.539 775.283 189.086 701.054C142.365 619.771 167.657 511.607 196.975 435.215ZM274.62 333.565C259.881 359.093 239.277 398.064 222.301 442.571C194.568 514.906 170.503 617.66 214.687 694.801C254.887 765.052 348.718 740.44 467.298 709.082C584.744 678.176 728.864 640.407 856.756 694.002C733.873 637.193 593.356 673.926 479.423 703.843C424.857 718.235 373.442 731.767 332.251 732.845C286.322 734.247 256.396 720.411 238.774 689.202C196.843 616.039 219.561 518.244 246.041 449.393C274.65 374.887 313.574 316.662 314.19 316.252C367.816 247.011 431.242 202.168 502.953 182.378C564.314 165.409 633.648 166.811 708.466 186.295C845.429 221.928 977.867 310.385 1074.91 375.204L1075.97 375.906C1100 392.075 1123.05 407.3 1142.63 419.366C1180.07 442.513 1202.53 476.513 1208.31 517.716C1213.19 554.573 1204.46 594.658 1183.26 631.374L1181.94 633.668C1154.54 679.808 1110.46 714.786 1060.54 730.328C1011.51 745.525 958.992 741.6 907.244 719.415C1040.98 785.216 1156.34 724.079 1208.77 635.778L1210.1 633.484C1250.34 563.782 1254.08 465.358 1167.59 411.595C1149.17 400.279 1128.12 386.237 1105.58 371.201C1102.78 369.331 1099.96 367.446 1097.11 365.55L1094.86 364.051C992.403 295.732 852.86 202.686 708.758 165.429C535.62 120.541 399.829 165.292 293.571 302.054C293.552 302.353 292.255 304.434 289.978 308.086C286.645 313.432 281.213 322.146 274.62 333.565ZM247.629 449.927C263.848 408.043 283.293 371.08 297.204 346.986C307.637 328.915 314.83 317.77 315.28 317.647C415.93 187.973 544.19 145.758 707.756 188.18C844.436 223.65 976.873 312.106 1073.92 376.924L1074.97 377.627C1081.82 382.123 1088.57 386.589 1095.16 390.956C1111.86 402.015 1127.6 412.437 1141.63 421.087C1223.46 471.772 1219.76 564.867 1181.67 630.84L1180.51 632.848C1130.91 716.247 1021.86 774.151 895.067 711.675C943.9 732.51 993.15 736.062 1039.26 721.868C1086.32 707.348 1127.93 674.009 1153.67 630.738L1154.83 628.73C1174.87 594.022 1183.18 555.986 1178.16 521.343C1172.8 482.682 1151.27 450.363 1116.1 428.529C1102.92 420.369 1088.18 410.53 1072.52 400.078L1072.52 400.077L1072.52 400.076L1072.5 400.063L1072.47 400.04L1072.44 400.021L1072.39 399.989L1072.34 399.955C1066.16 395.833 1059.85 391.615 1053.42 387.368C961.805 326.058 836.535 242.26 706.894 208.717C635.986 190.343 570.774 189.025 513.012 205.013C445.351 223.699 385.618 266.085 335.045 331.353C335.037 331.366 335.009 331.41 334.961 331.483C334.915 331.554 334.85 331.653 334.766 331.78C331.301 337.054 296.528 389.971 270.918 456.871C245.856 521.952 224.532 614.05 264.21 683.235C300.544 747.047 384.926 725.011 491.356 696.965C599.156 668.495 732.321 633.329 848.588 688.218C727.487 637.006 590.945 672.865 479.413 702.156L479.232 702.204C366.952 731.844 278.236 754.82 240.289 688.547C198.643 615.549 221.148 518.778 247.629 449.927ZM319.337 360.529C306.254 383.19 287.685 417.98 272.624 457.856C247.893 522.363 226.616 613.723 265.725 682.58C301.307 744.923 383.831 723.367 488.678 695.98L490.715 695.447C597.317 667.291 728.382 632.888 843.892 684.595C733.573 629.622 606.263 662.947 503.289 690.086L503.12 690.131C403.069 716.438 323.991 737.232 289.645 677.267C252.505 612.225 272.436 525.824 295.914 464.801C319.987 401.839 352.428 352.383 355.745 347.326C355.911 347.073 356.004 346.931 356.019 346.904C403.54 285.611 459.863 245.846 523.19 228.1C577.637 213.257 638.892 214.203 705.442 231.59C826.569 263.063 943.995 341.307 1029.87 398.532L1031 399.281C1032.23 400.105 1033.47 400.926 1034.69 401.745L1037.61 403.69C1056.52 416.309 1074.36 428.22 1089.87 437.857C1163.61 483.495 1160.52 566.997 1126.41 626.086L1125.25 628.094C1101 668.783 1062.01 700.198 1017.82 713.694C972.749 727.665 924.702 723.363 877.31 701.876C998.998 765.354 1104.46 710.12 1151.64 630.326L1152.8 628.318C1188.73 566.074 1191.94 478.432 1114.95 430.537C1096.51 419.128 1074.87 404.724 1052.26 389.376C960.646 328.066 835.375 244.268 706.02 210.889C551.74 170.77 430.845 210.735 336.136 332.747C336.183 332.928 335.095 334.655 333.137 337.763L333.136 337.764L333.136 337.765L333.135 337.766C330.196 342.43 325.299 350.204 319.337 360.529ZM297.951 465.212C312.256 427.959 329.666 395.176 341.921 373.95C349.571 360.7 355.402 351.526 357.27 348.588L357.271 348.587C357.626 348.027 357.838 347.694 357.891 347.602C446.661 233.251 560.475 195.7 705.183 233.353C825.796 264.931 942.876 342.945 1028.74 400.159L1030.01 401.002C1031.08 401.721 1032.16 402.437 1033.23 403.152L1036.61 405.411C1055.52 418.031 1073.37 429.941 1088.87 439.578C1161.2 484.395 1158.03 566.708 1124.42 624.936L1123.42 626.658C1079.82 700.289 983.945 751.44 872.435 697.078C914.57 714.61 957.057 717.348 996.704 704.948C1037.75 692.31 1074.39 662.984 1097.15 624.876L1098.15 623.155C1130.11 567.795 1132.99 489.909 1064.2 447.513C1048.03 437.417 1029.08 424.942 1009.14 411.523L1007.21 410.23L1007.21 410.23C926.927 356.626 817.651 283.662 704.724 254.505C642.368 238.391 584.949 237.367 534.102 251.228C474.706 267.419 422.076 304.727 377.609 362.046C377.159 362.169 344.765 410.395 321.24 472.156C299.346 529.122 280.644 610.113 315.697 670.891C347.791 726.881 421.477 707.553 515.236 682.96L515.388 682.92C609.787 658.099 725.636 627.644 827.166 674.418C720.351 630.465 600.71 661.995 502.696 687.831L501.47 688.153C402.819 714.085 324.913 734.565 291.492 676.039C254.755 611.611 274.639 525.948 297.951 465.212ZM317.093 669.785C264.822 578.413 333.417 440.559 364.882 386.059C371.632 374.367 376.713 366.476 378.422 363.822L378.422 363.821L378.423 363.82C378.647 363.472 378.813 363.215 378.917 363.05C378.973 362.962 379.011 362.901 379.031 362.867C462.476 255.768 568.475 220.589 703.896 255.94C817.264 285.448 927.253 358.885 1007.71 412.6L1007.75 412.629C1027.96 426.212 1046.92 438.687 1063.08 448.783C1130.57 490.809 1127.62 567.506 1096.16 622.006L1095.16 623.727C1055.47 690.641 969.276 737.685 868.467 693.151C904.552 706.105 940.831 707.443 974.812 696.897C1013.15 684.995 1047.17 657.594 1068.44 622.068L1069.44 620.347C1099.24 568.716 1102.25 495.872 1038 456.103C1026.94 449.439 1014.73 441.297 1001.7 432.61L1001.69 432.609L1001.67 432.594L1001.64 432.572C996.789 429.34 991.827 426.032 986.768 422.698C912.118 372.714 809.172 304.099 703.318 276.64C645.606 261.678 592.024 260.574 544.612 273.74C489.266 288.828 440.329 323.679 398.914 377.023C398.885 377.074 398.756 377.274 398.534 377.617C391.139 389.051 280.854 559.575 341.132 664.923C371.11 717.417 439.909 699.387 527.156 676.328C610.694 654.425 712.641 627.699 803.812 662.917C707.744 630.173 601.718 658.052 514.629 680.952L514.463 680.996C421.61 705.341 348.381 724.542 317.093 669.785ZM342.979 663.695C294.289 578.598 357.988 450.537 387.3 399.767C393.604 388.849 398.255 381.691 399.861 379.221C400.195 378.706 400.398 378.394 400.455 378.295C477.676 278.694 576.428 246.215 702.444 278.813C808.013 306.107 910.675 374.558 985.325 424.541C987.492 425.97 989.647 427.392 991.788 428.804L991.79 428.805C1008.1 439.564 1023.56 449.767 1036.84 458.111C1099.67 497.059 1097.04 568.591 1067.73 619.362L1066.74 621.083C1028.59 685.254 944.377 729.923 846.569 681.24C882.707 696.202 919.231 698.693 953.416 687.986C989.342 676.984 1020.85 651.959 1040.35 618.85L1041.17 617.416C1068.83 569.513 1071.34 502.121 1011.48 465.266C999.309 457.568 985.206 448.168 970.291 438.226C968.19 436.826 966.073 435.414 963.942 433.995C894.814 387.582 799.949 324.016 701.629 298.612C647.825 284.759 598.366 283.74 554.553 295.925C503.541 310.072 458.013 342.302 419.651 391.673C419.621 391.725 419.492 391.925 419.271 392.267C412.163 403.262 310.32 560.819 366.165 658.341C393.89 706.856 457.739 690.176 538.687 668.834L539.479 668.627C620.997 647.319 720.88 621.211 808.485 662.192C716.058 624.377 612.295 651.59 527.366 673.863L526.562 674.073L526.378 674.121C440.283 696.625 372.011 714.47 342.979 663.695ZM409.718 413.474C382.559 460.516 323.591 579.069 368.581 657.44C395.665 704.439 458.614 688.004 538.377 666.743C613.877 646.796 705.635 622.786 789.04 651.832C710.975 620.194 623.232 643.309 551.341 662.249L550.739 662.407L550.337 662.513C476.327 681.965 417.43 697.445 391.885 652.538C340.604 562.748 434.579 417.17 440.763 407.59C440.946 407.307 441.052 407.143 441.075 407.102C506.581 322.537 594.038 293.862 700.461 321.65C790.35 345.005 877.168 402.941 940.855 445.441L941.803 446.073C957.634 456.743 972.777 466.633 985.526 474.759C1040.72 508.536 1038.25 570.599 1012.91 614.486L1012.09 615.92C994.081 646.447 964.915 669.383 932.139 679.526C902.727 688.657 871.551 687.316 840.377 676.006C928.495 716.658 1003.91 676.115 1038.36 617.701C1066.25 570.7 1069.33 503.637 1010.77 467.152C996.885 458.369 980.32 447.658 963.233 435.881L961.079 434.446C891.98 388.446 798.066 325.926 701.488 300.825C585.044 270.694 493.372 300.76 421.926 392.986C421.821 393.167 421.527 393.648 421.063 394.406C419.326 397.243 415.207 403.968 409.718 413.474ZM394.017 651.474C352.773 579.09 406.845 470.331 431.851 427.018C437.118 417.897 441.22 411.664 442.736 409.362C443.079 408.841 443.289 408.521 443.35 408.415C509.306 323.728 593.163 296.035 700.32 323.863C789.643 346.892 876.457 404.825 940.145 447.325L941.094 447.959L942.102 448.638L943.157 449.349L944.897 450.523C959.321 460.251 972.941 469.436 984.817 476.644C1038.14 509.723 1035.76 570.31 1010.92 613.336L1010.09 614.77C977.753 668.913 907.448 706.683 825.661 667.485C895.995 694.102 955.84 660.282 983.824 612.989L984.487 611.841C1007.67 571.684 1009.81 514.786 959.785 483.226C951.823 478.371 943.049 472.523 933.697 466.289L933.69 466.284L933.687 466.282L933.684 466.28L933.681 466.278L933.673 466.273L933.64 466.251L933.609 466.23C929.154 463.26 924.568 460.204 919.877 457.126C861.91 418.304 781.857 365.202 699.505 343.663C602.204 318.464 522.278 344.603 462.546 421.793C462.522 421.835 462.417 421.997 462.239 422.274L462.235 422.281C456.338 431.423 370.805 564.034 417.653 645.997C440.946 686.93 494.452 672.915 562.167 655.179L562.554 655.077L564.175 654.657C631.464 637.211 713.812 615.861 786.107 648.283C708.176 618.758 621.367 641.386 550.145 660.152L549.74 660.259C476.633 679.465 418.637 694.701 394.017 651.474ZM454.435 440.439C431.747 479.736 382.24 579.275 420.068 645.097C442.437 684.35 495.042 670.579 561.856 653.088L562.244 652.987C625.251 636.438 701.261 616.525 770.538 639.756C706.218 614.047 633.886 632.929 574.606 648.651C515.541 664.268 464.575 677.678 443.207 640.482C400.666 566.124 478.501 445.716 483.553 437.901L483.554 437.901C483.623 437.794 483.678 437.709 483.719 437.645C483.766 437.572 483.795 437.526 483.805 437.509C538.046 367.858 610.157 344.092 698.337 366.701C772.87 386.021 845.127 434.24 897.856 469.655L899.379 470.667L901.86 472.317L902.086 472.468L902.088 472.469C913.647 480.158 924.458 487.35 933.949 493.17C978.903 521.037 977.258 572.483 956.226 608.911L955.563 610.059C930.606 652.131 878.147 682.464 816.148 661.024C889.732 694.888 952.907 660.705 981.834 611.839C1005.26 572.584 1007.8 516.301 958.578 485.972C950.615 481.115 941.838 475.265 932.483 469.029L932.481 469.028L932.48 469.027L932.476 469.024L932.469 469.02L932.456 469.011C927.985 466.031 923.381 462.962 918.671 459.872C860.704 421.05 781.101 367.825 699.033 346.45C601.448 321.087 524.672 346.367 464.94 423.557C464.159 424.253 460.231 430.4 454.435 440.439ZM445.385 638.679C411.422 579.296 456.033 489.551 476.568 453.983C480.625 446.956 483.684 442.043 485.118 439.739L485.119 439.739C485.558 439.034 485.844 438.573 485.961 438.371C609.258 279.321 789.129 399.232 896.294 471.048C897.105 471.587 897.913 472.124 898.718 472.659L900.428 473.797L900.529 473.864L900.53 473.865C912.087 481.553 922.897 488.743 932.386 494.563C976.203 521.773 974.202 571.866 953.832 607.147L953.17 608.294C927.736 651.142 873.078 681.621 808.868 655.014C861.625 669.993 905.686 643.459 927.137 607.414L927.799 606.267C946.678 573.567 948.446 527.163 907.71 502.497C905.025 500.727 902.199 498.875 899.256 496.947L899.254 496.946L899.253 496.946C891.963 492.169 883.955 486.922 875.599 481.281C828.226 449.723 763.6 406.674 697.05 389.287C618.323 368.693 553.743 389.923 505.11 452.486C505.091 452.52 505.005 452.653 504.859 452.879C500.09 460.262 430.702 567.698 468.808 634.227C487.758 667.732 533.774 655.672 586.539 641.771C635.897 628.727 695.504 613.062 750.158 629.936C690.892 614.86 627.396 631.468 574.378 645.336L573.774 645.494C513.36 661.479 465.544 674.03 445.385 638.679ZM498.986 467.69C480.604 499.53 440.724 579.767 471.105 632.876C489.296 664.413 531.711 653.334 585.827 639.065L587.225 638.701C638.127 625.449 699.35 609.51 755.241 628.472C704.035 606.387 645.925 621.681 598.472 634.171L598.069 634.277C551.154 646.583 510.988 657.049 493.841 627.644C460.166 568.937 521.126 474.455 525.595 467.529L525.596 467.527C525.741 467.303 525.826 467.171 525.847 467.135C568.705 411.947 625.754 393.253 695.36 411.258C753.852 426.364 810.739 464.443 852.263 492.237L852.772 492.578C857.14 495.419 861.331 498.224 865.339 500.907L865.346 500.912L865.351 500.915C870.951 504.663 876.194 508.173 881.068 511.21C917.538 533.413 915.98 574.201 899.254 603.172L898.757 604.032C879.151 636.852 838.473 660.673 790.231 644.811C850.069 672.933 901.406 645.483 925.028 605.814L925.524 604.953C943.741 573.401 945.533 528.924 906.385 504.792C897.315 499.19 886.734 492.019 875.837 484.634L875.836 484.634L875.835 484.633L875.835 484.633L874.274 483.575C778.271 419.352 617.928 312.244 507.504 454.25C507.054 454.373 503.789 459.372 498.986 467.69ZM496.422 626.457C469.906 579.788 504.89 509.344 521.119 481.234C522.798 478.326 524.278 475.87 525.437 473.947L525.438 473.946L525.44 473.943L525.44 473.942L525.44 473.942L525.441 473.942L525.441 473.941L525.441 473.941L525.441 473.941C527.138 471.125 528.145 469.454 528.075 469.186C624.947 344.036 766.124 438.316 850.713 494.806L850.997 494.996C861.306 502.095 871.212 508.579 879.577 513.791C914.46 535.461 912.546 574.895 896.032 602.841C875.412 637.931 829.811 662.067 776.828 636.824C818.576 650.13 853.641 629.729 870.496 601.103L870.993 600.242C885.401 575.287 886.915 539.829 855.564 520.58C849.764 516.925 843.338 512.662 836.349 508.025L836.343 508.021C834.624 506.88 832.87 505.717 831.083 504.534C795.038 480.281 745.674 447.574 694.642 434.174C634.324 418.472 584.639 434.916 547.556 482.729C545.118 486.294 489.868 569.513 519.846 622.007C534.488 647.571 569.099 638.547 609.413 628.036L610.122 627.851C650.5 617.064 700.053 603.975 743.909 621.763C694.967 606.204 641.399 620.219 597.191 631.858C549.826 644.287 512.359 654.017 496.422 626.457ZM543.703 494.656C529.792 518.75 499.374 579.974 522.474 620.082C535.992 643.95 568.674 635.282 609.456 624.407L609.847 624.305C645.917 614.858 688.835 603.618 729.048 613.484C693.718 601.879 654.577 612.044 622.354 620.413L621.937 620.521C587.455 629.68 557.922 637.489 545.329 615.302C521.173 573.065 562.252 507.612 568.114 498.271C568.318 497.946 568.479 497.69 568.593 497.504C568.658 497.398 568.708 497.315 568.742 497.256C641.301 403.76 746.072 473.811 808.707 515.71C814.81 519.845 820.655 523.587 825.722 526.83L825.723 526.831L825.726 526.833L825.768 526.86C827.02 527.661 828.224 528.432 829.372 529.17C856.008 546.079 854.987 576.085 842.567 597.598L842.236 598.172C828.616 621.221 800.747 638.125 767.535 629.778C812.204 649.967 850.614 629.014 868.103 599.338L868.599 598.478C882.345 574.67 883.6 540.974 854.12 522.424C847.976 518.552 840.924 513.879 833.387 508.884L833.386 508.884L833.385 508.883C832.056 508.003 830.712 507.112 829.355 506.214L829.069 506.023C755.927 457.29 633.829 375.937 549.996 483.756L543.703 494.656ZM547.91 614.115C528.557 579.994 554.079 528.565 565.837 508.2C568.249 504.021 570.197 501.078 570.94 499.955L570.94 499.954C571.115 499.69 571.223 499.526 571.255 499.472C642.039 408.393 745.553 477.336 807.051 518.578C813.442 522.908 819.55 526.807 824.944 530.25L824.948 530.253L824.987 530.278L825.09 530.344C826.086 530.979 827.057 531.599 828 532.203C853.096 547.839 851.719 576.493 839.676 596.695C824.599 622.185 791.493 639.688 753.16 621.38C779.501 627.431 802.574 614.453 813.974 595.24L814.306 594.667C824.408 577.169 825.101 552.328 803.417 538.661C800.258 536.838 796.901 534.608 793.295 532.213L793.294 532.213L793.293 532.212L793.292 532.211L793.29 532.21L793.288 532.209L793.286 532.207L793.282 532.204C791.048 530.721 788.719 529.175 786.283 527.622L786.272 527.614C734.798 493.306 649.113 436.196 589.716 512.807C589.639 512.94 589.464 513.22 589.203 513.635L589.201 513.638C584.396 521.291 550.717 574.93 570.598 609.62C580.939 627.829 605.522 621.369 633.704 613.929C660.186 606.92 692.675 598.457 721.759 608.304C687.783 600.21 651.558 609.739 621.224 617.815L620.602 617.976C586.133 626.894 559.108 633.886 547.91 614.115ZM573.511 607.86C557.858 580.465 578.649 538.543 588.254 521.906L588.255 521.905C590.739 517.603 592.229 515.022 592.679 514.899C650.304 440.7 734.292 496.84 784.627 530.49C791.002 534.553 796.808 538.288 801.761 541.53C821.904 553.924 820.901 576.675 811.462 593.025L811.131 593.599C798.26 615.234 769.325 629.889 736.173 611.132C703.432 592.603 665.647 602.333 634.827 610.269L634.741 610.291C634.116 610.452 633.493 610.612 632.873 610.772L631.936 611.011L631.208 611.197C603.984 618.156 582.623 623.616 573.511 607.86Z" fill="url(#paint0_linear_9_881)"/>
<defs>
<linearGradient id="paint0_linear_9_881" x1="446.685" y1="995.876" x2="962.781" y2="101.972" gradientUnits="userSpaceOnUse">
<stop stop-color="#FFD110" stop-opacity="0"/>
<stop offset="0.286458" stop-color="#109BFF"/>
<stop offset="0.614583" stop-color="#FF0469"/>
<stop offset="1" stop-color="#04DA00" stop-opacity="0"/>
</linearGradient>
</defs>
</svg>
